<?xml version="1.0" encoding="UTF-8" standalone="no"?>
<!-- Created with Inkscape (http://www.inkscape.org/) -->

<svg
   width="28.10899mm"
   height="41.770725mm"
   viewBox="0 0 28.10899 41.770725"
   version="1.1"
   id="svg1"
   inkscape:version="1.4.3 (0d15f75042, 2025-12-25)"
   sodipodi:docname="chair2.svg"
   xmlns:inkscape="http://www.inkscape.org/namespaces/inkscape"
   xmlns:sodipodi="http://sodipodi.sourceforge.net/DTD/sodipodi-0.dtd"
   xmlns:xlink="http://www.w3.org/1999/xlink"
   xmlns="http://www.w3.org/2000/svg"
   xmlns:svg="http://www.w3.org/2000/svg">
  <sodipodi:namedview
     id="namedview1"
     pagecolor="#505050"
     bordercolor="#eeeeee"
     borderopacity="1"
     inkscape:showpageshadow="0"
     inkscape:pageopacity="0"
     inkscape:pagecheckerboard="0"
     inkscape:deskcolor="#505050"
     inkscape:document-units="mm"
     inkscape:zoom="5.2258842"
     inkscape:cx="27.842178"
     inkscape:cy="79.029688"
     inkscape:window-width="2560"
     inkscape:window-height="1413"
     inkscape:window-x="0"
     inkscape:window-y="0"
     inkscape:window-maximized="0"
     inkscape:current-layer="layer1" />
  <defs
     id="defs1">
    <linearGradient
       id="linearGradient11"
       inkscape:collect="always">
      <stop
         style="stop-color:#281d0c;stop-opacity:1;"
         offset="0.82043654"
         id="stop12" />
      <stop
         style="stop-color:#281d0c;stop-opacity:0;"
         offset="1"
         id="stop13" />
    </linearGradient>
    <linearGradient
       id="linearGradient9"
       inkscape:collect="always">
      <stop
         style="stop-color:#281d0c;stop-opacity:1;"
         offset="0"
         id="stop9" />
      <stop
         style="stop-color:#281d0c;stop-opacity:0.72471911;"
         offset="0.5"
         id="stop11" />
      <stop
         style="stop-color:#281d0c;stop-opacity:1;"
         offset="1"
         id="stop10" />
    </linearGradient>
    <linearGradient
       id="linearGradient6"
       inkscape:collect="always">
      <stop
         style="stop-color:#281d0c;stop-opacity:1;"
         offset="0"
         id="stop6" />
      <stop
         style="stop-color:#281d0c;stop-opacity:0.49803922;"
         offset="0.15178572"
         id="stop8" />
      <stop
         style="stop-color:#281d0c;stop-opacity:1;"
         offset="1"
         id="stop7" />
    </linearGradient>
    <linearGradient
       inkscape:collect="always"
       xlink:href="#linearGradient6"
       id="linearGradient7"
       x1="75.894508"
       y1="86.930532"
       x2="94.495591"
       y2="86.930532"
       gradientUnits="userSpaceOnUse"
       gradientTransform="matrix(1,0,0,1.1897191,0,-16.998673)" />
    <linearGradient
       inkscape:collect="always"
       xlink:href="#linearGradient6"
       id="linearGradient8"
       gradientUnits="userSpaceOnUse"
       gradientTransform="matrix(-1,0,0,1.1897191,170.3901,12.923304)"
       x1="75.894508"
       y1="86.930532"
       x2="94.495591"
       y2="86.930532" />
    <linearGradient
       inkscape:collect="always"
       xlink:href="#linearGradient9"
       id="linearGradient10"
       x1="70.369858"
       y1="101.59783"
       x2="75.331932"
       y2="101.59783"
       gradientUnits="userSpaceOnUse" />
    <radialGradient
       inkscape:collect="always"
       xlink:href="#linearGradient11"
       id="radialGradient13"
       cx="87.140917"
       cy="102.08075"
       fx="87.140917"
       fy="102.08075"
       r="7.4547654"
       gradientTransform="matrix(1,0,0,1.1893623,0,-19.330242)"
       gradientUnits="userSpaceOnUse" />
  </defs>
  <g
     inkscape:label="Layer 1"
     inkscape:groupmode="layer"
     id="layer1"
     transform="translate(-69.072644,-80.536522)">
    <rect
       style="fill:#281b0a;fill-opacity:1;fill-rule:evenodd;stroke:#170d07;stroke-width:1.08153;stroke-opacity:1"
       id="rect1"
       width="24.289658"
       height="23.046745"
       x="72.351212"
       y="90.212967"
       ry="11.523373"
       rx="2.7344334" />
    <path
       style="fill:#251a09;fill-opacity:1;fill-rule:evenodd;stroke:#170d07;stroke-width:1.08152;stroke-opacity:1"
       d="m 95.164852,82.068388 c 0.670916,5.476271 -0.01709,9.002147 -0.01709,9.002147 l -18.601024,-0.06636 c -2.063617,9.972015 0.07603,20.555735 0.07603,20.555735 l 18.92094,0.35659 c 0.849832,5.81853 -0.423583,8.79409 -0.423583,8.79409 l -25.281041,1.03393 c -0.553588,-20.88674 0.08558,-40.646731 0.08558,-40.646731 z"
       id="path1"
       sodipodi:nodetypes="ccccccccc" />
    <path
       style="fill:none;fill-opacity:1;fill-rule:evenodd;stroke:#170d07;stroke-width:1.08153;stroke-opacity:1"
       d="M 76.442136,90.766417 71.959708,82.811388"
       id="path2"
       sodipodi:nodetypes="cc" />
    <path
       style="fill:none;fill-opacity:1;fill-rule:evenodd;stroke:#170d07;stroke-width:1.08153;stroke-opacity:1"
       d="m 76.634684,111.83864 -4.657252,8.31559"
       id="path3"
       sodipodi:nodetypes="cc" />
    <path
       style="fill:url(#radialGradient13);fill-opacity:1;fill-rule:evenodd;stroke-width:0.582001"
       d="m 93.526639,110.25597 c 0.387205,-0.96558 0.739812,-1.98388 0.810071,-3.03776 0.03456,-0.51846 -0.05735,-1.05338 0,-1.56951 0.09329,-0.8396 0.295805,-1.6783 0.253147,-2.53147 -0.04349,-0.86988 -0.299966,-1.71106 -0.354406,-2.5821 -0.06591,-1.054505 0,-2.132446 0,-3.18965 0,-0.881988 0.08456,-2.548167 -0.607553,-3.240281 -1.220185,-1.220186 -3.53724,-0.86842 -5.062939,-0.759441 -0.770446,0.05503 -1.571498,-0.01644 -2.328952,0.151888 -0.32715,0.0727 -0.59457,0.259378 -0.911329,0.354406 -0.255481,0.07664 -0.520539,0.120423 -0.759441,0.253147 -0.52077,0.289316 -0.812032,0.965881 -1.063217,1.468252 -0.181142,0.362285 -0.558165,0.559096 -0.759441,0.911329 -0.389823,0.68219 -0.566279,1.436335 -0.911329,2.126434 -0.223344,0.446689 -0.520923,0.991026 -0.911329,1.316364 -0.322887,0.269072 -0.832344,0.440132 -1.012588,0.860702 -0.26371,0.61532 -0.26022,1.67895 -0.151888,2.32895 0.05545,0.33269 0.05356,0.67872 0.101259,1.01259 0.0433,0.30307 0.200938,0.58646 0.303776,0.8607 0.60581,1.61549 1.76004,3.35066 3.34154,4.20224 0.831849,0.44792 1.768898,0.71537 2.683358,0.91132 0.782506,0.16768 1.581693,0.47714 2.379581,0.55693 0.426357,0.0426 0.840545,0.0911 1.265735,0.15189 0.347011,0.0496 0.714788,-0.0387 1.063217,0 0.320639,0.0356 1.057061,0.20457 1.366994,0.10126 0.465591,-0.1552 0.835557,-0.35092 1.265734,-0.65819 z"
       id="path11" />
    <path
       style="fill:none;fill-opacity:1;fill-rule:evenodd;stroke:#170d07;stroke-width:0.582;stroke-opacity:1;stroke-dasharray:none"
       d="m 84.460482,106.6633 c 0,0 2.043398,-9.113208 6.421475,-8.949651"
       id="path4"
       sodipodi:nodetypes="cc" />
    <path
       style="fill:none;fill-opacity:1;fill-rule:evenodd;stroke:#170d07;stroke-width:0.582;stroke-opacity:1;stroke-dasharray:none"
       d="m 82.517034,106.85362 c 0,0 0.676051,-8.366961 7.608519,-11.28102"
       id="path5"
       sodipodi:nodetypes="cc" />
    <path
       style="fill:url(#linearGradient7);fill-rule:evenodd;stroke-width:0.634813"
       d="m 87.451113,89.599183 c -2.051316,-0.929605 -4.522821,-0.130466 -6.531192,-1.325165 -0.663535,-0.39471 -1.443234,-0.572442 -2.075805,-1.02399 -0.369272,-0.263599 -0.720507,-0.609305 -1.113846,-0.843287 -0.805675,-0.479263 -1.624356,-0.456748 -1.772029,-1.686573 -0.02259,-0.18809 -0.09251,-0.403035 -0.05063,-0.602348 0.203269,-0.967334 3.712183,-0.783052 4.303498,-0.783052 1.580701,0 3.132669,0.289301 4.708533,0.361409 1.332633,0.06098 2.668114,0.03709 3.999722,0.120469 0.511569,0.03204 1.066289,0.03955 1.569511,-0.06024 0.351565,-0.06971 0.66974,-0.340065 1.012588,-0.421644 0.283654,-0.06749 0.567438,-0.06024 0.8607,-0.06024 0.0675,0 0.154783,-0.05679 0.202517,0 0.624464,0.742936 1.668093,1.131721 1.923917,2.349155 0.057,0.271269 -0.253147,1.788902 -0.253147,2.349155 0,1.022963 -0.449321,0.872146 -1.215105,1.023991 -1.099668,0.218049 -2.211924,0.180704 -3.34154,0.180704 -0.163157,0 -1.868672,-0.05751 -1.923917,0 -0.117096,0.121897 -0.202518,0.281095 -0.303776,0.421644 z"
       id="path6" />
    <path
       style="fill:url(#linearGradient8);fill-rule:evenodd;stroke-width:0.634813"
       d="m 82.938985,119.52115 c 2.051316,-0.92961 4.522821,-0.13047 6.531192,-1.32517 0.663535,-0.39471 1.443234,-0.57244 2.075805,-1.02399 0.369272,-0.26359 0.720507,-0.6093 1.113846,-0.84328 0.805675,-0.47927 1.624356,-0.45675 1.772029,-1.68658 0.02259,-0.18809 0.09251,-0.40303 0.05063,-0.60234 -0.203269,-0.96734 -3.712183,-0.78306 -4.303498,-0.78306 -1.580701,0 -3.132669,0.28931 -4.708533,0.36141 -1.332633,0.061 -2.668114,0.0371 -3.999722,0.12047 -0.511569,0.032 -1.066289,0.0396 -1.569511,-0.0602 -0.351565,-0.0697 -0.66974,-0.34006 -1.012588,-0.42164 -0.283654,-0.0675 -0.567438,-0.0602 -0.8607,-0.0602 -0.0675,0 -0.154783,-0.0568 -0.202517,0 -0.624464,0.74293 -1.668093,1.13172 -1.923917,2.34915 -0.057,0.27127 0.253147,1.78891 0.253147,2.34916 0,1.02296 0.449321,0.87214 1.215105,1.02399 1.099668,0.21805 2.211924,0.1807 3.34154,0.1807 0.163157,0 1.868672,-0.0575 1.923917,0 0.117096,0.1219 0.202518,0.2811 0.303776,0.42165 z"
       id="path8" />
    <path
       style="fill:url(#linearGradient10);fill-opacity:1;fill-rule:evenodd;stroke-width:0.582001"
       d="m 74.38873,94.206457 c -0.774634,2.714756 -0.556923,5.558925 -0.556923,8.353853 0,0.76803 0.05475,1.56243 0,2.32895 -0.03458,0.48413 -0.08306,0.22242 -0.05063,0.70881 0.08146,1.22196 0.31777,2.44955 0.556923,3.64532 0.175135,0.87567 0.242149,1.57918 -0.202517,2.37958 -0.160637,0.28914 -0.394483,0.5258 -0.556923,0.81007 -0.1027,0.17972 -0.389384,0.68027 -0.607553,0.60755 -0.467989,-0.156 -0.725277,-1.0071 -1.316364,-0.81007 -0.248839,0.0829 -0.411607,0.53915 -0.455665,0.75944 -0.0074,0.0371 -0.189133,0.44519 -0.202517,0.40504 -0.402548,-1.20765 -0.08743,-2.53127 -0.202518,-3.79721 -0.09055,-0.99604 -0.519048,-1.96101 -0.405035,-2.98713 0.158962,-1.43066 0.391941,-2.88355 0.658182,-4.3035 0.09604,-0.51218 0.121369,-0.29124 0.151888,-0.81007 0.03666,-0.62324 0.01601,-1.25012 0.05063,-1.873288 0.0339,-0.610187 0.166169,-1.206011 0.101259,-1.822658 -0.04768,-0.452989 -0.205154,-0.911054 -0.253147,-1.366993 -0.119089,-1.131347 -0.101259,-2.303209 -0.101259,-3.442799 0,-0.261293 -0.03378,-3.054618 0.101259,-3.189651 0.07554,-0.07554 1.319,0.994444 1.468252,1.113846 0.69344,0.554752 1.775478,0.634592 2.531469,1.012588 0.158594,0.0793 0.09334,0.237315 0.151889,0.354405 0.190979,0.381959 0.0198,0.98289 -0.202518,1.316365 -0.07552,0.113274 -0.260518,0.159259 -0.354406,0.253147 -0.110021,0.110021 -0.202517,0.23627 -0.303776,0.354405 z"
       id="path9" />
  </g>
</svg>
