<?xml version="1.0" encoding="UTF-8" standalone="no"?>
<!-- Created with Inkscape (http://www.inkscape.org/) -->

<svg
   width="28.108994mm"
   height="41.771133mm"
   viewBox="0 0 28.108994 41.771133"
   version="1.1"
   id="svg1"
   inkscape:version="1.4.3 (0d15f75042, 2025-12-25)"
   sodipodi:docname="chair1.svg"
   xmlns:inkscape="http://www.inkscape.org/namespaces/inkscape"
   xmlns:sodipodi="http://sodipodi.sourceforge.net/DTD/sodipodi-0.dtd"
   xmlns:xlink="http://www.w3.org/1999/xlink"
   xmlns="http://www.w3.org/2000/svg"
   xmlns:svg="http://www.w3.org/2000/svg">
  <sodipodi:namedview
     id="namedview1"
     pagecolor="#505050"
     bordercolor="#eeeeee"
     borderopacity="1"
     inkscape:showpageshadow="0"
     inkscape:pageopacity="0"
     inkscape:pagecheckerboard="0"
     inkscape:deskcolor="#505050"
     inkscape:document-units="mm"
     inkscape:zoom="5.2258842"
     inkscape:cx="77.403169"
     inkscape:cy="119.02292"
     inkscape:window-width="2560"
     inkscape:window-height="1413"
     inkscape:window-x="0"
     inkscape:window-y="0"
     inkscape:window-maximized="0"
     inkscape:current-layer="layer1" />
  <defs
     id="defs1">
    <linearGradient
       id="linearGradient12"
       inkscape:collect="always">
      <stop
         style="stop-color:#20290c;stop-opacity:1;"
         offset="0"
         id="stop10" />
      <stop
         style="stop-color:#20290c;stop-opacity:0.70926964;"
         offset="0.69940478"
         id="stop11" />
      <stop
         style="stop-color:#20290c;stop-opacity:1;"
         offset="1"
         id="stop12" />
    </linearGradient>
    <linearGradient
       id="linearGradient6"
       inkscape:collect="always">
      <stop
         style="stop-color:#20290c;stop-opacity:1;"
         offset="0"
         id="stop6" />
      <stop
         style="stop-color:#20290c;stop-opacity:0.49803922;"
         offset="0.74305558"
         id="stop8" />
      <stop
         style="stop-color:#20290c;stop-opacity:1;"
         offset="1"
         id="stop7" />
    </linearGradient>
    <linearGradient
       inkscape:collect="always"
       xlink:href="#linearGradient12"
       id="linearGradient7"
       x1="74.034184"
       y1="86.23359"
       x2="94.041075"
       y2="86.23359"
       gradientUnits="userSpaceOnUse"
       gradientTransform="translate(0.30377655,0.10125882)" />
    <linearGradient
       inkscape:collect="always"
       xlink:href="#linearGradient6"
       id="linearGradient8"
       gradientUnits="userSpaceOnUse"
       x1="74.034184"
       y1="86.23359"
       x2="94.041075"
       y2="86.23359"
       gradientTransform="rotate(172.49871,83.624167,101.46059)" />
  </defs>
  <g
     inkscape:label="Layer 1"
     inkscape:groupmode="layer"
     id="layer1"
     transform="translate(-69.072505,-80.536331)">
    <rect
       style="fill:#1f200a;fill-opacity:1;fill-rule:evenodd;stroke:#0c150c;stroke-width:1.08153;stroke-opacity:1"
       id="rect1"
       width="24.28966"
       height="23.046989"
       x="72.351074"
       y="90.21286"
       ry="11.523495"
       rx="2.7344339" />
    <path
       style="fill:#1d2609;fill-opacity:1;fill-rule:evenodd;stroke:#0c150c;stroke-width:1.08152;stroke-opacity:1"
       d="m 95.164716,82.068196 c 0.670916,5.47633 -0.01709,9.002243 -0.01709,9.002243 L 76.5466,91.004089 c -2.063617,9.972121 0.07603,20.555951 0.07603,20.555951 l 18.920942,0.35659 c 0.849832,5.81858 -0.423584,8.79418 -0.423584,8.79418 l -25.281043,1.03393 c -0.553588,-20.88695 0.08558,-40.647142 0.08558,-40.647142 z"
       id="path1"
       sodipodi:nodetypes="ccccccccc" />
    <path
       style="fill:none;fill-opacity:1;fill-rule:evenodd;stroke:#0c1f0c;stroke-width:1.08153;stroke-opacity:1"
       d="M 76.441998,90.766317 71.959569,82.811204"
       id="path2"
       sodipodi:nodetypes="cc" />
    <path
       style="fill:none;fill-opacity:1;fill-rule:evenodd;stroke:#0c1f0c;stroke-width:1.08153;stroke-opacity:1"
       d="m 76.634545,111.83876 -4.657251,8.31567"
       id="path3"
       sodipodi:nodetypes="cc" />
    <path
       style="fill:#21220c;fill-opacity:1;fill-rule:evenodd;stroke-width:9.7"
       d="m 91.298807,109.34446 c -0.872833,0.067 -1.800903,0.24994 -2.683358,0.15189 -0.732537,-0.0814 -1.454328,-0.32016 -2.177063,-0.45567 -0.722953,-0.13555 -1.657076,-0.0404 -2.278323,-0.50629 -0.209683,-0.15727 -0.281017,-0.44115 -0.405035,-0.65819 -0.11046,-0.1933 -0.279602,-0.33068 -0.405035,-0.50629 -0.187567,-0.26259 -0.334341,-0.58557 -0.506294,-0.8607 -0.533595,-0.85375 -0.663187,-1.95017 -1.316364,-2.73399 -0.233283,-0.27993 -0.558315,-0.45705 -0.810071,-0.70881 -0.376123,-0.37612 -0.630227,-0.91723 -0.911329,-1.36699 -0.27629,-0.44207 -0.597413,-0.87755 -0.860699,-1.31636 -0.142362,-0.23728 -0.185542,-0.692735 -0.151888,-0.961967 0.348023,-2.78419 2.579685,-3.314026 4.911051,-3.999722 0.986838,-0.290246 1.95768,-0.605446 2.936504,-0.911329 0.66187,-0.206834 1.225837,-0.629467 1.873288,-0.860699 1.11301,-0.397504 3.805403,-1.284901 4.91105,-0.455665 0.233107,0.17483 1.034462,1.251969 1.113847,1.569511 0.08726,0.349061 0.211093,0.739981 0.405035,1.063218 0.21256,0.354266 0.523961,0.660553 0.658181,1.063217 0.09746,0.292394 0.0272,0.615109 0.101259,0.911329 0.369887,1.479548 0.218189,2.997997 0.05063,4.506017 -0.05983,0.53848 0.02569,1.08586 -0.05063,1.62014 -0.05988,0.41914 -0.142584,0.84621 -0.202517,1.26574 -0.05313,0.37192 -0.02844,0.74977 -0.101258,1.11384 -0.05489,0.27446 -0.205989,0.52713 -0.253147,0.81007 -0.09955,0.5973 0.159149,2.13847 -0.354406,2.48084 -1.537831,1.02523 -2.048458,0.36613 -3.493428,-0.25314 z"
       id="path10" />
    <path
       style="fill:none;fill-opacity:1;fill-rule:evenodd;stroke:#1b1d0c;stroke-width:0.582;stroke-opacity:1;stroke-dasharray:none"
       d="m 84.460345,106.66337 c 0,0 2.043397,-9.113305 6.421475,-8.949747"
       id="path4"
       sodipodi:nodetypes="cc" />
    <path
       style="fill:none;fill-opacity:1;fill-rule:evenodd;stroke:#1b1d0c;stroke-width:0.582;stroke-opacity:1;stroke-dasharray:none"
       d="m 82.516896,106.85369 c 0,0 0.676051,-8.367048 7.60852,-11.281139"
       id="path5"
       sodipodi:nodetypes="cc" />
    <path
       style="fill:url(#linearGradient7);fill-rule:evenodd;stroke-width:9.7"
       d="m 77.983281,89.042068 c 0.63018,-0.09906 2.63088,-0.591908 3.13902,-0.253147 0.13792,0.09194 0.28104,0.361378 0.45566,0.405035 0.656,0.163999 1.4046,0.056 2.07581,0.151888 0.42141,0.0602 0.8416,0.260154 1.26573,0.354406 0.5243,0.116509 1.0847,0.101259 1.62014,0.101259 0.43487,0 0.83962,-0.05391 1.26574,-0.101259 0.71395,-0.07933 1.46615,0.101559 2.17706,0 0.33907,-0.04844 0.67526,-0.146296 1.01259,-0.202518 0.69723,-0.116205 1.44393,0.430019 2.12643,0.202518 0.10355,-0.03452 0.24365,-0.197767 0.35441,-0.253147 0.1904,-0.0952 0.46412,-0.210976 0.60755,-0.354406 0.24733,-0.247323 -0.0728,-1.357255 0,-1.721399 0.0485,-0.242474 0.1161,-0.458283 0.15189,-0.708812 0.0455,-0.318532 0.13755,-2.4264 0.10126,-2.48084 -0.14637,-0.219557 -0.75557,-0.471249 -1.01259,-0.556923 -0.66218,-0.220728 -1.58988,-0.111345 -2.22769,0.101259 -0.066,0.02201 -0.12955,0.129547 -0.15189,0.151888 -0.26263,0.26263 -0.85374,0.29286 -1.2151,0.202518 -0.43072,-0.107679 -1.07617,-0.680259 -1.367,-0.607553 -0.22648,0.05662 -1.68093,0.597392 -1.77203,0.506294 -0.17802,-0.178026 -0.30046,-0.502986 -0.45566,-0.658182 -0.0951,-0.09513 -0.51974,0.202517 -0.65818,0.202517 -0.42227,0 -0.82629,-0.259831 -1.26574,-0.303776 -0.75433,-0.07543 -1.52056,-0.06769 -2.27832,-0.151888 -0.85494,-0.09499 -1.71723,-0.224812 -2.5821,-0.101259 -0.47762,0.06823 -1.04067,0.270834 -1.51888,0.202518 -0.37326,-0.05332 -1.35964,-0.43403 -1.7214,-0.253147 -0.32097,0.160485 -0.29739,0.550534 -0.50629,0.75944 -0.0675,0.06751 0.0169,0.2869 -0.0506,0.354406 -0.13215,0.132147 -0.64249,-0.01569 -0.75945,0.101259 -0.11349,0.113494 0.0677,0.353779 0,0.556923 -0.064,0.191841 -0.45566,0.503812 -0.45566,0.607553 0,0.05452 0.34813,0.200007 0.35441,0.202517 0.50581,0.202328 1.07304,0.465493 1.41762,0.810071 0.0951,0.09508 0.19211,0.775856 0.30377,0.961958 0.23069,0.384471 0.64446,1.128869 0.96196,1.366994 0.19242,0.144312 0.40741,0.254926 0.60756,0.405035 z"
       id="path6" />
    <path
       style="fill:url(#linearGradient8);fill-opacity:1;fill-rule:evenodd;stroke-width:9.7"
       d="m 91.152396,113.09713 c -0.61185,0.18053 -2.531093,0.93031 -3.07911,0.66078 -0.148736,-0.0731 -0.32581,-0.3216 -0.504641,-0.34207 -0.671793,-0.077 -1.39989,0.12784 -2.077869,0.1204 -0.425664,-0.005 -0.868361,-0.14807 -1.301171,-0.18614 -0.535015,-0.0471 -1.088634,0.0412 -1.619494,0.11111 -0.431144,0.0568 -0.825392,0.16305 -1.241683,0.26564 -0.697492,0.17183 -1.466864,0.0907 -2.158433,0.28421 -0.329851,0.0923 -0.650381,0.2332 -0.977483,0.33298 -0.676095,0.20624 -1.487712,-0.23784 -2.134675,0.0768 -0.09816,0.0477 -0.215741,0.22788 -0.318324,0.29725 -0.176341,0.11924 -0.432607,0.26976 -0.556085,0.43069 -0.21292,0.27749 0.249394,1.33612 0.224725,1.70666 -0.01643,0.24673 -0.05528,0.46952 -0.05805,0.72258 -0.0035,0.32174 0.180388,2.42359 0.223478,2.47283 0.17378,0.19856 0.810621,0.36858 1.076626,0.41996 0.685334,0.13239 1.59081,-0.0972 2.19541,-0.39122 0.06259,-0.0304 0.111525,-0.14535 0.130759,-0.17042 0.226096,-0.29466 0.808197,-0.4018 1.178267,-0.35941 0.441084,0.0505 1.155767,0.53394 1.434612,0.4239 0.217149,-0.0857 1.588556,-0.81172 1.690766,-0.7333 0.199744,0.15326 0.363561,0.45946 0.537691,0.59307 0.106731,0.0819 0.488855,-0.26864 0.62611,-0.28671 0.418649,-0.0551 0.853135,0.14973 1.29456,0.13593 0.757719,-0.0237 1.516385,-0.13139 2.278653,-0.14685 0.860025,-0.0174 1.731883,-10e-4 2.57322,-0.23669 0.46463,-0.12997 0.996406,-0.40437 1.479445,-0.39908 0.377018,0.004 1.40466,0.25282 1.739715,0.0263 0.297273,-0.20101 0.222972,-0.58464 0.402818,-0.81904 0.05812,-0.0757 -0.05418,-0.28224 0.0039,-0.35798 0.113766,-0.14826 0.639039,-0.0683 0.739723,-0.19953 0.09771,-0.12734 -0.113316,-0.34191 -0.07271,-0.55216 0.03836,-0.19855 0.385994,-0.55899 0.372451,-0.66184 -0.0071,-0.054 -0.371261,-0.15285 -0.377812,-0.15452 -0.527904,-0.13456 -1.124631,-0.32142 -1.511244,-0.61807 -0.106682,-0.0819 -0.291757,-0.74413 -0.426759,-0.91407 -0.278901,-0.35106 -0.786316,-1.03507 -1.132185,-1.22971 -0.20961,-0.11795 -0.437202,-0.19956 -0.655231,-0.32226 z"
       id="path8" />
    <path
       style="fill:#20270c;fill-opacity:1;fill-rule:evenodd;stroke-width:9.7"
       d="m 75.29992,110.25578 c -0.4731,-1.36383 -0.405035,-2.95717 -0.405035,-4.40475 0,-0.37696 0.04673,-0.79064 0,-1.16448 -0.06473,-0.51786 -0.151888,-0.99144 -0.151888,-1.51888 0,-0.61658 0.03603,-1.26667 -0.05063,-1.87329 -0.130212,-0.91148 -0.320014,-1.895273 -0.202517,-2.835245 0.127294,-1.018356 0.353442,-2.015535 0.455664,-3.037763 0.09228,-0.92284 0.101259,-1.855484 0.101259,-2.784617 0,-0.399485 0.287084,-0.860148 0.151888,-1.265735 -0.206478,-0.619434 -0.844898,-2.087951 -1.316364,-2.48084 -0.318697,-0.265581 -0.699448,-0.447862 -1.012588,-0.708811 -0.194134,-0.161779 -0.43127,-0.330011 -0.607552,-0.506294 -0.04351,-0.04351 -0.0955,-0.354406 -0.151889,-0.354406 -0.160104,0 -0.104803,0.302641 -0.151888,0.455665 -0.10757,0.349602 -0.264645,0.675651 -0.405035,1.012588 -0.450121,1.08029 -0.34593,2.599278 -0.202517,3.746574 0.0659,0.527193 0.255382,1.037181 0.303776,1.569512 0.09257,1.018316 -7.49e-4,1.982023 -0.101259,2.987134 -0.07889,0.788884 0.152604,1.768448 0,2.531469 -0.114577,0.572889 -0.476126,1.026579 -0.708811,1.569509 -0.336034,0.78408 -0.137852,1.62315 -0.253147,2.43021 -0.131283,0.91898 -0.388863,1.93587 -0.253147,2.88588 0.147331,1.03132 0.643184,1.99145 0.759441,3.03776 0.09269,0.83422 0.244303,1.69487 0.506294,2.48084 0.07025,0.21075 0.05268,0.45978 0.151888,0.65818 0.145734,0.29147 -0.116943,1.04754 0.05063,1.21511 0.11838,0.11838 0.696852,0.45965 0.8607,0.40503 0.411396,-0.13713 0.274814,-0.67985 0.455664,-0.86069 0.133399,-0.1334 0.438925,-0.17731 0.607553,-0.30378 0.305959,-0.22947 0.806006,-0.35034 1.063217,-0.60756 0.07093,-0.0709 0.135748,-0.24507 0.253147,-0.30377 0.216467,-0.10823 0.332566,-0.10821 0.455665,-0.35441 0.239305,-0.47861 -0.135631,-1.15193 -0.202519,-1.62014 z"
       id="path9" />
  </g>
</svg>
