<?xml version="1.0" encoding="UTF-8" standalone="no"?>
<!-- Created with Inkscape (http://www.inkscape.org/) -->

<svg
   width="120mm"
   height="120mm"
   viewBox="0 0 120 120"
   version="1.1"
   id="svg1"
   inkscape:version="1.3.2 (091e20ef0f, 2023-11-25, custom)"
   sodipodi:docname="floor5.svg"
   xmlns:inkscape="http://www.inkscape.org/namespaces/inkscape"
   xmlns:sodipodi="http://sodipodi.sourceforge.net/DTD/sodipodi-0.dtd"
   xmlns="http://www.w3.org/2000/svg"
   xmlns:svg="http://www.w3.org/2000/svg">
  <sodipodi:namedview
     id="namedview1"
     pagecolor="#505050"
     bordercolor="#eeeeee"
     borderopacity="1"
     inkscape:showpageshadow="0"
     inkscape:pageopacity="0"
     inkscape:pagecheckerboard="0"
     inkscape:deskcolor="#505050"
     inkscape:document-units="mm"
     inkscape:zoom="1.4142136"
     inkscape:cx="193.3937"
     inkscape:cy="317.13738"
     inkscape:window-width="2560"
     inkscape:window-height="1413"
     inkscape:window-x="0"
     inkscape:window-y="0"
     inkscape:window-maximized="0"
     inkscape:current-layer="layer1"
     showgrid="false" />
  <defs
     id="defs1" />
  <g
     inkscape:label="Layer 1"
     inkscape:groupmode="layer"
     id="layer1"
     transform="translate(-44.965282,-71.314362)">
    <rect
       style="fill:#212321;stroke:none;stroke-width:2.598;stroke-linejoin:bevel;stroke-miterlimit:2;-inkscape-stroke:none;fill-opacity:1"
       id="rect1"
       width="120"
       height="120"
       x="44.965282"
       y="71.314362" />
    <path
       style="fill:#2b2c2b;fill-opacity:1;fill-rule:evenodd;stroke:#1d1d1d;stroke-width:4.098;stroke-linejoin:bevel;stroke-miterlimit:2;stroke-dasharray:none;stroke-opacity:1"
       d="m 51.381428,140.1391 c -0.07186,2.31833 -0.520688,7.4614 -2.546615,13.31185 -1.033723,2.98517 -2.27786,2.49889 1.736328,9.37617 2.986484,5.11657 6.708059,2.88274 8.880078,3.96875 1.391281,0.69564 8.490804,-0.41897 9.921875,0.23151 2.251969,1.02362 4.630402,1.7116 6.945313,2.57969 1.499057,0.56215 3.015689,1.22354 4.564062,1.65364 2.553052,0.70919 -0.101941,-0.18634 2.711979,0.46303 2.647178,0.61088 5.695408,2.32264 8.466667,1.25677 2.389457,-0.91903 2.626045,-4.2803 3.373437,-6.35 0.539078,-1.49284 1.412449,-1.9698 2.215886,-3.34037 1.007552,-1.71876 2.258235,-2.77761 3.406512,-4.3987 0.95536,-1.34875 2.72804,-1.86783 3.57187,-3.27421 0.83206,-1.38677 4.11338,-3.71155 4.23334,-5.39089 0.23873,-3.34233 -3.42948,-6.27809 -9.161202,-7.24297 -2.415112,-0.40655 -5.191614,-3.10631 -7.209895,-4.53098 -2.521437,-1.77984 -2.846049,-3.72952 -4.663282,-6.21772 -1.401014,-1.9183 -2.56204,-4.20996 -4.99401,-4.69635 -1.191578,-0.23832 -3.468674,-1.40184 -4.663281,-1.28984 -0.945301,0.0886 -3.095024,0.2154 -4.034896,0.3638 -2.440817,0.38539 -4.644267,0.93307 -6.879166,1.62058 -1.533607,0.47177 -3.524099,2.50116 -5.291667,2.81119 -2.199432,0.38576 -3.845894,1.50624 -5.953125,2.77813 -2.477199,1.4952 -3.88909,5.20524 -4.630208,6.31692 z"
       id="path17"
       sodipodi:nodetypes="csssssssssssscsssscssssc" />
    <path
       style="fill:#2b2c2b;fill-opacity:1;fill-rule:evenodd;stroke:#1d1d1d;stroke-width:4.098;stroke-linejoin:bevel;stroke-miterlimit:2;stroke-dasharray:none;stroke-opacity:1"
       d="m 84.123615,118.54249 c 6.109449,2.0366 10.065678,7.82281 13.427604,12.96458 0.929899,1.4222 1.661935,2.7983 2.910421,3.96875 1.51178,1.4173 6.01497,2.54349 8.13593,3.37344 2.42045,0.94713 9.51431,4.40404 12.10469,3.10885 0.99968,-0.49984 3.0328,-2.37134 3.83646,-3.175 0.58912,-0.58912 0.98853,-1.3854 1.5875,-1.98437 0.75379,-0.7538 1.59697,-1.45886 2.38125,-2.18282 3.05671,-2.82157 7.24604,-3.67043 8.13594,-8.26823 2.21059,-11.42139 -13.88929,-17.0397 -21.4974,-21.76197 -4.68067,-2.90525 -7.77062,-8.238388 -13.22917,-9.855733 -4.190792,-1.241718 -9.787325,-0.652795 -13.295309,2.116666 -1.285933,1.015209 -2.480063,2.149335 -3.63802,3.307287 -1.022001,1.02201 -2.140919,1.98123 -2.976563,3.175 -1.406766,2.00967 -2.243243,4.34236 -3.108854,6.61459 -0.844058,2.21565 -2.088131,5.42422 -0.529167,7.60677 0.945756,1.32406 3.276735,1.57478 4.7625,1.38906 0.236771,-0.0296 0.873496,-0.40766 0.992188,-0.39687 0.334454,0.0304 0.61736,0.26458 0.926041,0.39687"
       id="path18" />
    <path
       style="fill:#2b2c2b;fill-opacity:1;fill-rule:evenodd;stroke:none;stroke-width:4.098;stroke-linejoin:bevel;stroke-miterlimit:2;stroke-dasharray:none;stroke-opacity:1"
       d="m 44.973321,121.42197 9.206078,2.6514 11.646269,-4.77076 3.835318,-10.61729 5.572536,-11.720841 5.119486,-5.765701 -3.255978,-6.318296 -11.920254,-6.083301 -10.616879,-0.640305 -8.077886,-2.430146 -1.49919,1.649744 z"
       id="path26"
       sodipodi:nodetypes="cccccccccccc" />
    <path
       style="fill:none;fill-opacity:1;fill-rule:evenodd;stroke:#1d1d1d;stroke-width:4.098;stroke-linejoin:bevel;stroke-miterlimit:2;stroke-dasharray:none;stroke-opacity:1"
       d="m 44.969416,121.06016 c 0.421026,0 0.980294,0.12299 1.384928,0.39274 0.477067,0.31805 1.28088,0.81786 1.653646,1.19063 0.08139,0.0814 0.158672,0.37702 0.330729,0.46302 0.556329,0.27816 1.323784,0.39752 1.852084,0.79375 0.381129,0.28585 0.767167,0.53411 1.256771,0.59531 2.064528,0.25807 3.798831,-0.12477 5.820833,-0.52917 0.338665,-0.0677 0.741459,-0.04 1.058333,-0.19843 4.235929,-2.11797 8.519593,-5.22996 10.384896,-9.78959 0.277638,-0.67867 0.362249,-1.48362 0.595312,-2.18281 0.972158,-2.91647 2.166129,-5.81489 2.248959,-8.92969 0.15434,-0.33073 0.299802,-0.66575 0.463021,-0.99218 0.509868,-1.01974 1.273449,-1.885443 1.785937,-2.91042 0.831869,-1.663737 2.800653,-1.751331 3.894336,-3.282487 1.130632,-1.582885 3.243636,-3.816532 2.976562,-5.953125 C 80.110574,85.206193 72.919871,81.649669 68.22381,79.227057 65.304267,77.720918 58.087712,76.376666 54.969839,77.267487 52.642163,77.932537 47.39914,75.409394 44.972968,75.409394"
       id="path19"
       sodipodi:nodetypes="ccscssccssccsssssc" />
    <path
       style="fill:#2b2c2b;fill-opacity:1;fill-rule:evenodd;stroke:none;stroke-width:4.098;stroke-linejoin:bevel;stroke-miterlimit:2;stroke-dasharray:none;stroke-opacity:1"
       d="m 81.816633,71.331902 3.185623,11.815818 6.781964,5.378799 13.84456,-0.467721 10.24311,-1.730571 4.49012,-6.828736 5.28526,-6.407787 -0.005,-1.771658 z"
       id="path27" />
    <path
       style="fill:none;fill-opacity:1;fill-rule:evenodd;stroke:#1d1d1d;stroke-width:4.098;stroke-linejoin:bevel;stroke-miterlimit:2;stroke-dasharray:none;stroke-opacity:1"
       d="m 82.148364,71.334651 c 0,0.42591 0.198538,7.570364 0.541623,7.841885 1.660842,1.314409 4.88892,5.103557 7.718917,7.07333 2.965037,2.063768 7.862457,0.558946 11.422616,1.1781 3.85323,0.670126 7.35018,1.299829 10.99122,0.228934 3.05753,-0.899273 4.27122,-2.21264 6.37327,-4.735102 0.90487,-1.085846 1.64323,-3.204149 2.13742,-4.521991 0.38708,-1.032215 2.72097,-2.509603 3.15837,-3.530207 0.27885,-0.650645 0.74911,-2.583178 0.74911,-3.553554"
       id="path20"
       sodipodi:nodetypes="csssssssc" />
    <path
       style="fill:#2b2c2b;fill-opacity:1;fill-rule:evenodd;stroke:none;stroke-width:4.098;stroke-linejoin:bevel;stroke-miterlimit:2;stroke-dasharray:none;stroke-opacity:1"
       d="m 144.89665,71.31953 0.83927,7.688853 4.65383,6.618262 6.73519,5.542502 7.83301,2.201233 V 71.317979 Z"
       id="path28" />
    <path
       style="fill:none;fill-opacity:1;fill-rule:evenodd;stroke:#1d1d1d;stroke-width:4.098;stroke-linejoin:bevel;stroke-miterlimit:2;stroke-dasharray:none;stroke-opacity:1"
       d="m 145.28805,71.323877 c 0,2.680697 -0.34998,5.546673 0.68192,8.126422 1.31146,3.278655 2.52446,4.045817 4.89479,6.416146 0.88527,0.885271 1.6196,1.96563 2.64583,2.711979 1.15512,0.840087 2.43243,1.526663 3.57188,2.38125 0.83636,0.627271 1.63107,1.311632 2.57969,1.785938 0.77575,0.387878 4.12571,0.992187 5.29372,0.992187"
       id="path21"
       sodipodi:nodetypes="csssssc" />
    <path
       style="fill:#2b2c2b;fill-opacity:1;fill-rule:evenodd;stroke:#1d1d1d;stroke-width:4.098;stroke-linejoin:bevel;stroke-miterlimit:2;stroke-dasharray:none;stroke-opacity:1"
       d="m 117.99028,95.722174 c 1.10883,0.655168 2.37413,0.981286 3.50573,1.5875 3.20097,1.714802 6.13506,4.061376 9.19427,6.019266 2.59765,1.6625 5.47647,2.94678 8.00365,4.69636 2.02165,1.39961 2.75243,5.10906 3.63801,7.37526 1.03999,2.66134 7.91943,7.80348 9.50847,7.14374 3.85701,-1.60135 8.75688,-7.10785 8.26823,-11.77394 -0.4691,-4.47935 -2.87324,-10.04276 -6.92878,-12.666936 -3.64958,-2.361497 -8.27361,-3.122535 -11.70781,-5.820833 -1.07313,-0.843177 -1.98225,-1.856838 -2.84427,-2.910417 -1.0244,-1.252049 -1.54447,-2.993899 -2.84427,-3.96875 -0.81275,-0.609564 -2.09051,-0.798642 -3.04271,-1.058333 -1.00177,-0.273211 -2.18777,-0.684158 -3.24114,-0.396875 -2.09413,0.571125 -5.09836,4.502308 -6.94532,6.085417 -1.18051,1.011871 -5.40485,3.136797 -5.88698,4.101041 -0.38608,0.772171 0.90483,1.326193 1.32292,1.5875 z"
       id="path22"
       sodipodi:nodetypes="cssssssssssssssc" />
    <path
       style="fill:#2b2c2b;fill-opacity:1;fill-rule:evenodd;stroke:#1d1d1d;stroke-width:4.098;stroke-linejoin:bevel;stroke-miterlimit:2;stroke-dasharray:none;stroke-opacity:1"
       d="m 100.66007,174.50186 c 0.81346,-2.82 1.96375,-5.72126 3.77032,-8.06979 3.68302,-4.78794 9.98849,-8.75592 15.08125,-11.9724 2.35637,-1.48823 4.841,-2.72209 7.01145,-4.49791 1.44967,-1.18609 2.68012,-2.61557 4.0349,-3.90261 0.9227,-0.87656 1.9416,-1.68061 2.77812,-2.64583 1.25164,-1.44419 2.29159,-3.08286 3.57188,-4.49792 1.6109,-1.78047 3.81411,-3.01399 5.68854,-4.49791 1.66219,-1.31591 3.65886,-3.50342 6.01927,-3.24115 0.9378,0.1042 1.77552,0.67214 2.57969,1.12448 2.93386,1.65029 4.91674,3.96352 6.87917,6.68073 2.31593,3.20668 -0.49749,6.41845 0,9.92187 0.22878,1.6111 4.03881,6.38346 3.83645,8.0698 -0.66533,5.54444 -1.08005,17.24352 -4.06797,21.86119 -3.26343,5.04348 -7.29585,3.27535 -12.53463,8.23516 -1.77371,1.67926 -7.94366,0.62289 -11.27786,0.23151 -2.53502,-0.29757 -5.84885,0.0249 -9.29349,-0.23151 -7.94193,-0.59126 -14.2982,0.52582 -21.69584,-1.78594 -4.869138,4.15197 -6.213349,-6.56778 -6.264252,-7.21999 z"
       id="path23"
       sodipodi:nodetypes="cssssssssssssssssscc" />
    <path
       style="fill:#2b2c2b;fill-opacity:1;fill-rule:evenodd;stroke:none;stroke-width:4.098;stroke-linejoin:bevel;stroke-miterlimit:2;stroke-dasharray:none;stroke-opacity:1"
       d="m 44.968383,191.31117 v -15.10605 l 12.08505,-1.0418 14.750521,4.2168 7.705989,3.07578 4.48138,4.5806 0.727604,3.34036 v 0.93369 z"
       id="path25" />
    <path
       style="fill:none;fill-opacity:1;fill-rule:evenodd;stroke:#1d1d1d;stroke-width:4.098;stroke-linejoin:bevel;stroke-miterlimit:2;stroke-dasharray:none;stroke-opacity:1"
       d="m 84.799689,191.308 c 0,-1.3341 -0.258292,-5.65417 -1.337532,-6.55354 -0.712867,-0.59405 -1.800035,-0.59054 -2.579688,-1.05833 -1.170562,-0.70234 -2.241904,-1.68726 -3.505729,-2.24896 -1.378188,-0.61253 -2.818725,-1.10352 -4.233333,-1.65364 -2.126401,-0.82694 -4.079477,-2.08062 -6.217709,-2.84427 -1.604544,-0.57306 -3.373376,-0.69085 -5.027083,-1.05834 -2.069662,-0.45992 -4.234971,-1.05843 -6.35,-1.19062 -2.172039,-0.13575 -4.116391,1.28731 -6.217708,1.5875 -1.465146,0.2093 -2.85934,0.12402 -4.357357,0.12402"
       id="path24"
       sodipodi:nodetypes="cssssssssc" />
  </g>
</svg>
