<?xml version="1.0" encoding="UTF-8" standalone="no"?>
<!-- Created with Inkscape (http://www.inkscape.org/) -->

<svg
   width="73.755852mm"
   height="234.73108mm"
   viewBox="0 0 73.755852 234.73109"
   version="1.1"
   id="svg1"
   inkscape:version="1.4.3 (0d15f75042, 2025-12-25)"
   sodipodi:docname="piano.svg"
   xmlns:inkscape="http://www.inkscape.org/namespaces/inkscape"
   xmlns:sodipodi="http://sodipodi.sourceforge.net/DTD/sodipodi-0.dtd"
   xmlns="http://www.w3.org/2000/svg"
   xmlns:svg="http://www.w3.org/2000/svg">
  <sodipodi:namedview
     id="namedview1"
     pagecolor="#505050"
     bordercolor="#eeeeee"
     borderopacity="1"
     inkscape:showpageshadow="0"
     inkscape:pageopacity="0"
     inkscape:pagecheckerboard="0"
     inkscape:deskcolor="#505050"
     inkscape:document-units="mm"
     inkscape:zoom="1.306471"
     inkscape:cx="161.88648"
     inkscape:cy="452.36364"
     inkscape:window-width="2560"
     inkscape:window-height="1413"
     inkscape:window-x="0"
     inkscape:window-y="0"
     inkscape:window-maximized="0"
     inkscape:current-layer="layer1" />
  <defs
     id="defs1" />
  <g
     inkscape:label="Layer 1"
     inkscape:groupmode="layer"
     id="layer1"
     transform="translate(-51.690786,-52.476199)">
    <rect
       style="fill:#2a1607;fill-opacity:1;fill-rule:evenodd;stroke:#0f0a00;stroke-width:3.07344;stroke-dasharray:none;stroke-opacity:1"
       id="rect1"
       width="64.980789"
       height="217.07094"
       x="58.929127"
       y="61.301559" />
    <g
       id="g79"
       style="stroke-width:2.2;stroke-dasharray:none;stroke:#0f0a00;stroke-opacity:1"
       transform="matrix(0.81613603,0,0,1.0012167,9.6091699,-0.20665301)">
      <path
         style="fill:#2a1607;fill-opacity:1;fill-rule:evenodd;stroke:#0f0a00;stroke-width:2.2;stroke-dasharray:none;stroke-opacity:1"
         d="M 61.35702,79.879999 52.989176,66.242616 65.221777,54.010025 78.846164,62.364864"
         id="path26"
         sodipodi:nodetypes="cccc" />
      <path
         style="fill:#2a1607;fill-opacity:1;fill-rule:evenodd;stroke:#0f0a00;stroke-width:2.2;stroke-dasharray:none;stroke-opacity:1"
         d="m 61.32122,259.80348 -8.367844,13.6374 12.232601,12.23259 13.624387,-8.35484"
         id="path79"
         sodipodi:nodetypes="cccc" />
    </g>
    <g
       id="g57"
       transform="matrix(0.91801474,0,0,1.0006745,-4.4683432,-0.11464196)">
      <path
         style="fill:#77736a;fill-opacity:1;fill-rule:evenodd;stroke:#130c00;stroke-width:2.80002;stroke-dasharray:none;stroke-opacity:1"
         d="m 138.60801,70.698917 h -37.3645 V 268.71865 h 37.46575"
         id="path27"
         sodipodi:nodetypes="cccc" />
      <g
         id="g56">
        <path
           style="fill:none;fill-opacity:1;fill-rule:evenodd;stroke:#130c00;stroke-width:2.80001;stroke-dasharray:none;stroke-opacity:1"
           d="m 102.55868,261.71935 h 36.18735"
           id="path29" />
        <path
           style="fill:none;fill-opacity:1;fill-rule:evenodd;stroke:#130c00;stroke-width:2.80001;stroke-dasharray:none;stroke-opacity:1"
           d="m 102.55868,92.261013 h 36.18735"
           id="path30" />
        <path
           style="fill:none;fill-opacity:1;fill-rule:evenodd;stroke:#130c00;stroke-width:2.80001;stroke-dasharray:none;stroke-opacity:1"
           d="m 102.55868,99.628766 h 36.18735"
           id="path31" />
        <path
           style="fill:none;fill-opacity:1;fill-rule:evenodd;stroke:#130c00;stroke-width:2.80001;stroke-dasharray:none;stroke-opacity:1"
           d="m 102.55868,106.99652 h 36.18735"
           id="path32" />
        <path
           style="fill:none;fill-opacity:1;fill-rule:evenodd;stroke:#130c00;stroke-width:2.80001;stroke-dasharray:none;stroke-opacity:1"
           d="m 102.55868,114.36427 h 36.18735"
           id="path33" />
        <path
           style="fill:none;fill-opacity:1;fill-rule:evenodd;stroke:#130c00;stroke-width:2.80001;stroke-dasharray:none;stroke-opacity:1"
           d="m 102.55868,121.73203 h 36.18735"
           id="path34" />
        <path
           style="fill:none;fill-opacity:1;fill-rule:evenodd;stroke:#130c00;stroke-width:2.80001;stroke-dasharray:none;stroke-opacity:1"
           d="m 102.55868,136.46754 h 36.18735"
           id="path35" />
        <path
           style="fill:none;fill-opacity:1;fill-rule:evenodd;stroke:#130c00;stroke-width:2.80001;stroke-dasharray:none;stroke-opacity:1"
           d="m 102.55868,173.3063 h 36.18735"
           id="path36" />
        <path
           style="fill:none;fill-opacity:1;fill-rule:evenodd;stroke:#130c00;stroke-width:2.80001;stroke-dasharray:none;stroke-opacity:1"
           d="m 102.55868,180.67406 h 36.18735"
           id="path37" />
        <path
           style="fill:none;fill-opacity:1;fill-rule:evenodd;stroke:#130c00;stroke-width:2.80001;stroke-dasharray:none;stroke-opacity:1"
           d="m 102.55868,188.04181 h 36.18735"
           id="path38" />
        <path
           style="fill:none;fill-opacity:1;fill-rule:evenodd;stroke:#130c00;stroke-width:2.80001;stroke-dasharray:none;stroke-opacity:1"
           d="m 102.55868,195.40957 h 36.18735"
           id="path39" />
        <path
           style="fill:none;fill-opacity:1;fill-rule:evenodd;stroke:#130c00;stroke-width:2.80001;stroke-dasharray:none;stroke-opacity:1"
           d="m 102.55868,202.77732 h 36.18735"
           id="path40" />
        <path
           style="fill:none;fill-opacity:1;fill-rule:evenodd;stroke:#130c00;stroke-width:2.80001;stroke-dasharray:none;stroke-opacity:1"
           d="m 102.55868,210.14507 h 36.18735"
           id="path41" />
        <path
           style="fill:none;fill-opacity:1;fill-rule:evenodd;stroke:#130c00;stroke-width:2.80001;stroke-dasharray:none;stroke-opacity:1"
           d="m 102.55868,217.51283 h 36.18735"
           id="path42" />
        <path
           style="fill:none;fill-opacity:1;fill-rule:evenodd;stroke:#130c00;stroke-width:2.80001;stroke-dasharray:none;stroke-opacity:1"
           d="m 102.55868,224.88058 h 36.18735"
           id="path43" />
        <path
           style="fill:none;fill-opacity:1;fill-rule:evenodd;stroke:#130c00;stroke-width:2.80001;stroke-dasharray:none;stroke-opacity:1"
           d="m 102.55868,232.24833 h 36.18735"
           id="path44" />
        <path
           style="fill:none;fill-opacity:1;fill-rule:evenodd;stroke:#130c00;stroke-width:2.80001;stroke-dasharray:none;stroke-opacity:1"
           d="m 102.55868,239.61609 h 36.18735"
           id="path45" />
        <path
           style="fill:none;fill-opacity:1;fill-rule:evenodd;stroke:#130c00;stroke-width:2.80001;stroke-dasharray:none;stroke-opacity:1"
           d="m 102.55868,246.98384 h 36.18735"
           id="path46" />
        <path
           style="fill:none;fill-opacity:1;fill-rule:evenodd;stroke:#130c00;stroke-width:2.80001;stroke-dasharray:none;stroke-opacity:1"
           d="m 102.55868,77.525505 h 36.18735"
           id="path47" />
        <path
           style="fill:none;fill-opacity:1;fill-rule:evenodd;stroke:#130c00;stroke-width:2.80001;stroke-dasharray:none;stroke-opacity:1"
           d="m 102.55868,143.83529 h 36.18735"
           id="path48" />
        <path
           style="fill:none;fill-opacity:1;fill-rule:evenodd;stroke:#130c00;stroke-width:2.80001;stroke-dasharray:none;stroke-opacity:1"
           d="m 102.55868,151.20304 h 36.18735"
           id="path50" />
        <path
           style="fill:none;fill-opacity:1;fill-rule:evenodd;stroke:#130c00;stroke-width:2.80001;stroke-dasharray:none;stroke-opacity:1"
           d="m 102.55868,158.5708 h 36.18735"
           id="path51" />
        <path
           style="fill:none;fill-opacity:1;fill-rule:evenodd;stroke:#130c00;stroke-width:2.80001;stroke-dasharray:none;stroke-opacity:1"
           d="m 102.55868,165.93855 h 36.18735"
           id="path52" />
        <path
           style="fill:none;fill-opacity:1;fill-rule:evenodd;stroke:#130c00;stroke-width:2.80001;stroke-dasharray:none;stroke-opacity:1"
           d="m 102.55868,129.09978 h 36.18735"
           id="path53" />
        <path
           style="fill:none;fill-opacity:1;fill-rule:evenodd;stroke:#130c00;stroke-width:2.80001;stroke-dasharray:none;stroke-opacity:1"
           d="m 102.55868,254.3516 h 36.18735"
           id="path54" />
        <path
           style="fill:none;fill-opacity:1;fill-rule:evenodd;stroke:#130c00;stroke-width:2.80001;stroke-dasharray:none;stroke-opacity:1"
           d="m 102.55868,84.893259 h 36.18735"
           id="path55" />
      </g>
    </g>
    <g
       id="g59"
       transform="matrix(0.91801474,0,0,1.0006745,-4.4683432,14.712023)">
      <rect
         style="fill:#130c00;fill-opacity:1;fill-rule:evenodd;stroke:none;stroke-width:3.28626;stroke-dasharray:none;stroke-opacity:1"
         id="rect56"
         width="20.421709"
         height="5.0138001"
         x="102.60931"
         y="244.4427" />
      <rect
         style="fill:#130c00;fill-opacity:1;fill-rule:evenodd;stroke:none;stroke-width:3.28626;stroke-dasharray:none;stroke-opacity:1"
         id="rect57"
         width="20.421709"
         height="5.0138001"
         x="102.60931"
         y="237.03447" />
      <rect
         style="fill:#130c00;fill-opacity:1;fill-rule:evenodd;stroke:none;stroke-width:3.28626;stroke-dasharray:none;stroke-opacity:1"
         id="rect58"
         width="20.421709"
         height="5.0138001"
         x="102.60931"
         y="229.62624" />
      <rect
         style="fill:#130c00;fill-opacity:1;fill-rule:evenodd;stroke:none;stroke-width:3.28626;stroke-dasharray:none;stroke-opacity:1"
         id="rect59"
         width="20.421709"
         height="5.0138001"
         x="102.60931"
         y="222.218" />
    </g>
    <g
       id="g63"
       transform="matrix(0.91801474,0,0,1.0006745,-4.4683432,-22.354642)">
      <rect
         style="fill:#130c00;fill-opacity:1;fill-rule:evenodd;stroke:none;stroke-width:3.28626;stroke-dasharray:none;stroke-opacity:1"
         id="rect60"
         width="20.421709"
         height="5.0138001"
         x="102.60931"
         y="244.4427" />
      <rect
         style="fill:#130c00;fill-opacity:1;fill-rule:evenodd;stroke:none;stroke-width:3.28626;stroke-dasharray:none;stroke-opacity:1"
         id="rect61"
         width="20.421709"
         height="5.0138001"
         x="102.60931"
         y="237.03447" />
      <rect
         style="fill:#130c00;fill-opacity:1;fill-rule:evenodd;stroke:none;stroke-width:3.28626;stroke-dasharray:none;stroke-opacity:1"
         id="rect62"
         width="20.421709"
         height="5.0138001"
         x="102.60931"
         y="229.62624" />
      <rect
         style="fill:#130c00;fill-opacity:1;fill-rule:evenodd;stroke:none;stroke-width:3.28626;stroke-dasharray:none;stroke-opacity:1"
         id="rect63"
         width="20.421709"
         height="5.0138001"
         x="102.60931"
         y="222.218" />
    </g>
    <g
       id="g67"
       transform="matrix(0.91801474,0,0,1.0006745,-4.4683432,-58.891768)">
      <rect
         style="fill:#130c00;fill-opacity:1;fill-rule:evenodd;stroke:none;stroke-width:3.28626;stroke-dasharray:none;stroke-opacity:1"
         id="rect64"
         width="20.421709"
         height="5.0138001"
         x="102.60931"
         y="244.4427" />
      <rect
         style="fill:#130c00;fill-opacity:1;fill-rule:evenodd;stroke:none;stroke-width:3.28626;stroke-dasharray:none;stroke-opacity:1"
         id="rect65"
         width="20.421709"
         height="5.0138001"
         x="102.60931"
         y="237.03447" />
      <rect
         style="fill:#130c00;fill-opacity:1;fill-rule:evenodd;stroke:none;stroke-width:3.28626;stroke-dasharray:none;stroke-opacity:1"
         id="rect66"
         width="20.421709"
         height="5.0138001"
         x="102.60931"
         y="229.62624" />
      <rect
         style="fill:#130c00;fill-opacity:1;fill-rule:evenodd;stroke:none;stroke-width:3.28626;stroke-dasharray:none;stroke-opacity:1"
         id="rect67"
         width="20.421709"
         height="5.0138001"
         x="102.60931"
         y="222.218" />
    </g>
    <g
       id="g71"
       transform="matrix(0.91801474,0,0,1.0006745,-4.4683432,-95.958442)">
      <rect
         style="fill:#130c00;fill-opacity:1;fill-rule:evenodd;stroke:none;stroke-width:3.28626;stroke-dasharray:none;stroke-opacity:1"
         id="rect68"
         width="20.421709"
         height="5.0138001"
         x="102.60931"
         y="244.4427" />
      <rect
         style="fill:#130c00;fill-opacity:1;fill-rule:evenodd;stroke:none;stroke-width:3.28626;stroke-dasharray:none;stroke-opacity:1"
         id="rect69"
         width="20.421709"
         height="5.0138001"
         x="102.60931"
         y="237.03447" />
      <rect
         style="fill:#130c00;fill-opacity:1;fill-rule:evenodd;stroke:none;stroke-width:3.28626;stroke-dasharray:none;stroke-opacity:1"
         id="rect70"
         width="20.421709"
         height="5.0138001"
         x="102.60931"
         y="229.62624" />
      <rect
         style="fill:#130c00;fill-opacity:1;fill-rule:evenodd;stroke:none;stroke-width:3.28626;stroke-dasharray:none;stroke-opacity:1"
         id="rect71"
         width="20.421709"
         height="5.0138001"
         x="102.60931"
         y="222.218" />
    </g>
    <g
       id="g75"
       transform="matrix(0.91801474,0,0,1.0006745,-4.4683432,-133.0251)">
      <rect
         style="fill:#130c00;fill-opacity:1;fill-rule:evenodd;stroke:none;stroke-width:3.28626;stroke-dasharray:none;stroke-opacity:1"
         id="rect72"
         width="20.421709"
         height="5.0138001"
         x="102.60931"
         y="244.4427" />
      <rect
         style="fill:#130c00;fill-opacity:1;fill-rule:evenodd;stroke:none;stroke-width:3.28626;stroke-dasharray:none;stroke-opacity:1"
         id="rect73"
         width="20.421709"
         height="5.0138001"
         x="102.60931"
         y="237.03447" />
      <rect
         style="fill:#130c00;fill-opacity:1;fill-rule:evenodd;stroke:none;stroke-width:3.28626;stroke-dasharray:none;stroke-opacity:1"
         id="rect74"
         width="20.421709"
         height="5.0138001"
         x="102.60931"
         y="229.62624" />
      <rect
         style="fill:#130c00;fill-opacity:1;fill-rule:evenodd;stroke:none;stroke-width:3.28626;stroke-dasharray:none;stroke-opacity:1"
         id="rect75"
         width="20.421709"
         height="5.0138001"
         x="102.60931"
         y="222.218" />
      <rect
         style="fill:#130c00;fill-opacity:1;fill-rule:evenodd;stroke:none;stroke-width:3.28626;stroke-dasharray:none;stroke-opacity:1"
         id="rect79"
         width="20.421709"
         height="5.0138001"
         x="102.60931"
         y="207.93069" />
    </g>
    <path
       style="fill:#2c1809;fill-rule:evenodd;stroke:none;stroke-width:2.2;stroke-dasharray:none;stroke-opacity:1;fill-opacity:1"
       d="m 80.043245,271.80272 c -4.216071,-0.062 -8.493067,-0.56957 -11.948536,-3.03776 -0.739356,-0.52811 -1.240971,-1.56291 -1.822658,-2.2277 -0.740491,-0.84627 -1.462006,-1.55077 -1.822659,-2.63273 -1.782665,-5.34799 -0.593819,-14.79404 -1.012587,-20.65679 -0.505061,-7.07085 0.06657,-14.19022 -0.405036,-21.26434 -0.253654,-3.80482 -1.990716,-7.26041 -1.215105,-11.13847 0.850596,-4.25298 2.94396,-8.13549 3.847834,-12.35357 0.900873,-4.20407 2.191247,-8.32351 3.037763,-12.55609 0.702917,-3.51458 1.396536,-7.35827 1.620141,-10.93595 0.07158,-1.14536 -0.08176,-2.29811 0,-3.44279 0.244162,-3.41828 0.515045,-7.09311 0.202517,-10.53092 -0.567276,-6.24003 -1.605054,-12.40522 -2.227693,-18.63161 -0.401126,-4.01126 0.365021,-8.13582 0,-12.15106 -0.880704,-9.68774 -0.319516,-19.45953 -1.012588,-29.16253 -0.239545,-3.35363 0.304338,-6.778164 0,-10.125873 -0.477045,-5.247503 -0.765244,-10.756646 -2.025175,-15.796371 -0.225507,-0.902024 -1.125929,-1.757644 -1.417623,-2.632728 -0.328894,-0.986682 -1.100917,-4.481247 -0.607553,-5.467974 1.778716,-3.557433 12.350658,-1.700565 15.998888,-2.430211 0.427699,-0.08554 2.461236,-0.576526 2.835246,-0.202518 1.498587,1.498588 1.169223,5.055031 1.417622,7.290632 0.47427,4.26843 0.405034,8.650283 0.405034,12.961123 0,1.643378 0.136557,3.452064 0.405038,5.06294 0.374359,2.246164 0.0301,4.635968 0.405034,6.885599 0.285406,1.712441 -0.0432,3.545441 0.202518,5.265461 0.293367,2.05358 0.500941,4.59411 0.202517,6.68307 -1.052375,7.36663 -2.419167,14.65126 -3.037763,22.07442 -0.463619,5.56343 0.383461,11.28948 -0.405035,16.80896 -0.329853,2.30897 0.383286,4.7884 0,7.08811 -0.936365,5.61819 -0.436038,11.74802 0,17.41651 0.216726,2.81746 -0.147695,5.70403 0.202518,8.50574 0.469622,3.75698 0.448482,7.82601 1.620139,11.34098 0.271113,0.81334 -0.0052,1.80195 0.202517,2.63273 0.457853,1.83141 1.106374,4.68779 0.607555,6.68308 -0.620332,2.48132 -0.20252,5.50694 -0.20252,8.1007 0,5.76335 0.20252,11.46041 0.20252,17.214 0,2.29651 0.28498,4.80826 0,7.08811 -0.36227,2.89815 -1.265307,5.71897 -1.822659,8.50574 -0.01299,0.0649 -0.392055,0.74516 -0.405035,0.81007 -0.718039,3.59019 -1.311272,7.16392 -2.025176,10.73343 -0.103738,0.51869 0.087,1.09817 0,1.62014 -0.913882,5.48329 0,11.05459 0,16.60644 z"
       id="path1" />
    <g
       id="g82"
       transform="matrix(0.81613603,0,0,1.0012167,115.94316,-26.431009)"
       style="stroke:#514200;stroke-opacity:1">
      <path
         style="fill:none;fill-opacity:1;fill-rule:evenodd;stroke:#514200;stroke-width:1.81343;stroke-dasharray:none;stroke-opacity:1"
         d="m -45.969864,192.63362 c 4.050351,-32.81536 2.645377,-57.39253 2.645377,-57.39253 0,0 -0.723963,-4.24065 -5.56133,-3.76807 0,0 -3.012067,0.46489 -3.859391,3.41742 0,0 -0.330592,1.57443 0.456845,3.23559 0,0 0.959823,1.39376 2.516911,1.75935 0,0 2.39463,-0.0744 2.798536,-1.53278 0,0 0.92154,-2.63665 -1.75015,-3.32914"
         id="path81"
         sodipodi:nodetypes="cccccccc" />
      <path
         style="fill:none;fill-opacity:1;fill-rule:evenodd;stroke:#514200;stroke-width:1.81343;stroke-dasharray:none;stroke-opacity:1"
         d="m -45.969864,199.43485 c 4.050351,32.81536 2.645377,57.39253 2.645377,57.39253 0,0 -0.723963,4.24065 -5.56133,3.76807 0,0 -3.012067,-0.46489 -3.859391,-3.41742 0,0 -0.330592,-1.57443 0.456845,-3.23559 0,0 0.959823,-1.39376 2.516911,-1.75935 0,0 2.39463,0.0744 2.798536,1.53278 0,0 0.92154,2.63665 -1.75015,3.32914"
         id="path82"
         sodipodi:nodetypes="cccccccc" />
    </g>
  </g>
</svg>
