<?xml version="1.0" encoding="UTF-8" standalone="no"?>
<!-- Created with Inkscape (http://www.inkscape.org/) -->

<svg
   width="203.437mm"
   height="103.437mm"
   viewBox="0 0 203.43699 103.437"
   version="1.1"
   id="svg1"
   inkscape:version="1.3.2 (091e20ef0f, 2023-11-25, custom)"
   sodipodi:docname="rug1.svg"
   xmlns:inkscape="http://www.inkscape.org/namespaces/inkscape"
   xmlns:sodipodi="http://sodipodi.sourceforge.net/DTD/sodipodi-0.dtd"
   xmlns="http://www.w3.org/2000/svg"
   xmlns:svg="http://www.w3.org/2000/svg">
  <sodipodi:namedview
     id="namedview1"
     pagecolor="#505050"
     bordercolor="#eeeeee"
     borderopacity="1"
     inkscape:showpageshadow="0"
     inkscape:pageopacity="0"
     inkscape:pagecheckerboard="0"
     inkscape:deskcolor="#505050"
     inkscape:document-units="mm"
     inkscape:zoom="2"
     inkscape:cx="355.75"
     inkscape:cy="165.75"
     inkscape:window-width="2560"
     inkscape:window-height="1413"
     inkscape:window-x="0"
     inkscape:window-y="0"
     inkscape:window-maximized="0"
     inkscape:current-layer="layer1" />
  <defs
     id="defs1" />
  <g
     inkscape:label="Layer 1"
     inkscape:groupmode="layer"
     id="layer1"
     transform="translate(-18.043312,-29.642639)">
    <rect
       style="fill:#34120a;fill-opacity:1;fill-rule:evenodd;stroke:#180e06;stroke-width:3.437;stroke-dasharray:none;stroke-opacity:1"
       id="rect1"
       width="200"
       height="100"
       x="19.761812"
       y="31.361139" />
    <rect
       style="fill:none;fill-opacity:1;fill-rule:evenodd;stroke:#180e06;stroke-width:1.98544;stroke-dasharray:none;stroke-opacity:1"
       id="rect2"
       width="170.27429"
       height="71.774231"
       x="34.62466"
       y="45.474022" />
    <g
       id="g29"
       style="fill:#3a1f09;fill-opacity:1"
       transform="translate(0.26458333)">
      <path
         sodipodi:type="star"
         style="fill:#3a1f09;fill-opacity:1;fill-rule:evenodd;stroke:#180e06;stroke-width:29.7501;stroke-dasharray:none;stroke-opacity:1"
         id="path25"
         inkscape:flatsided="false"
         sodipodi:sides="3"
         sodipodi:cx="124.45079"
         sodipodi:cy="160.15968"
         sodipodi:r1="84.717178"
         sodipodi:r2="42.358585"
         sodipodi:arg1="0.78539816"
         sodipodi:arg2="1.8325957"
         inkscape:rounded="0"
         inkscape:randomized="0"
         d="M 184.35488,220.06377 113.48758,201.07493 42.62028,182.0861 94.498747,130.20764 146.37721,78.329173 165.36604,149.19647 Z"
         transform="matrix(0.01438074,0.05366967,-0.05366967,0.01438074,217.17819,103.09077)"
         inkscape:transform-center-x="-1.1767845"
         inkscape:transform-center-y="-2.4920653e-06" />
      <path
         sodipodi:type="star"
         style="fill:#3a1f09;fill-opacity:1;fill-rule:evenodd;stroke:#180e06;stroke-width:29.7501;stroke-dasharray:none;stroke-opacity:1"
         id="path26"
         inkscape:flatsided="false"
         sodipodi:sides="3"
         sodipodi:cx="124.45079"
         sodipodi:cy="160.15968"
         sodipodi:r1="84.717178"
         sodipodi:r2="42.358585"
         sodipodi:arg1="0.78539816"
         sodipodi:arg2="1.8325957"
         inkscape:rounded="0"
         inkscape:randomized="0"
         d="M 184.35488,220.06377 113.48758,201.07493 42.62028,182.0861 94.498747,130.20764 146.37721,78.329173 165.36604,149.19647 Z"
         transform="matrix(0.01438074,0.05366967,-0.05366967,0.01438074,217.17819,57.251713)"
         inkscape:transform-center-x="-1.1767845"
         inkscape:transform-center-y="-2.4920653e-06" />
      <path
         sodipodi:type="star"
         style="fill:#3a1f09;fill-opacity:1;fill-rule:evenodd;stroke:#180e06;stroke-width:29.7501;stroke-dasharray:none;stroke-opacity:1"
         id="path27"
         inkscape:flatsided="false"
         sodipodi:sides="3"
         sodipodi:cx="124.45079"
         sodipodi:cy="160.15968"
         sodipodi:r1="84.717178"
         sodipodi:r2="42.358585"
         sodipodi:arg1="0.78539816"
         sodipodi:arg2="1.8325957"
         inkscape:rounded="0"
         inkscape:randomized="0"
         d="M 184.35488,220.06377 113.48758,201.07493 42.62028,182.0861 94.498747,130.20764 146.37721,78.329173 165.36604,149.19647 Z"
         transform="matrix(0.01438074,0.05366967,-0.05366967,0.01438074,217.17819,72.531398)"
         inkscape:transform-center-x="-1.1767845"
         inkscape:transform-center-y="-2.4920653e-06" />
      <path
         sodipodi:type="star"
         style="fill:#3a1f09;fill-opacity:1;fill-rule:evenodd;stroke:#180e06;stroke-width:29.7501;stroke-dasharray:none;stroke-opacity:1"
         id="path28"
         inkscape:flatsided="false"
         sodipodi:sides="3"
         sodipodi:cx="124.45079"
         sodipodi:cy="160.15968"
         sodipodi:r1="84.717178"
         sodipodi:r2="42.358585"
         sodipodi:arg1="0.78539816"
         sodipodi:arg2="1.8325957"
         inkscape:rounded="0"
         inkscape:randomized="0"
         d="M 184.35488,220.06377 113.48758,201.07493 42.62028,182.0861 94.498747,130.20764 146.37721,78.329173 165.36604,149.19647 Z"
         transform="matrix(0.01438074,0.05366967,-0.05366967,0.01438074,217.17819,87.811084)"
         inkscape:transform-center-x="-1.1767845"
         inkscape:transform-center-y="-2.4920653e-06" />
      <path
         sodipodi:type="star"
         style="fill:#3a1f09;fill-opacity:1;fill-rule:evenodd;stroke:#180e06;stroke-width:29.7501;stroke-dasharray:none;stroke-opacity:1"
         id="path29"
         inkscape:flatsided="false"
         sodipodi:sides="3"
         sodipodi:cx="124.45079"
         sodipodi:cy="160.15968"
         sodipodi:r1="84.717178"
         sodipodi:r2="42.358585"
         sodipodi:arg1="0.78539816"
         sodipodi:arg2="1.8325957"
         inkscape:rounded="0"
         inkscape:randomized="0"
         d="M 184.35488,220.06377 113.48758,201.07493 42.62028,182.0861 94.498747,130.20764 146.37721,78.329173 165.36604,149.19647 Z"
         transform="matrix(0.01438074,0.05366967,-0.05366967,0.01438074,217.17819,41.972027)"
         inkscape:transform-center-x="-1.1767845"
         inkscape:transform-center-y="-2.4920653e-06" />
    </g>
    <g
       id="g34"
       transform="matrix(-1,0,0,1,238.97948,0)"
       style="fill:#3a1f09;fill-opacity:1">
      <path
         sodipodi:type="star"
         style="fill:#3a1f09;fill-opacity:1;fill-rule:evenodd;stroke:#180e06;stroke-width:29.7501;stroke-dasharray:none;stroke-opacity:1"
         id="path30"
         inkscape:flatsided="false"
         sodipodi:sides="3"
         sodipodi:cx="124.45079"
         sodipodi:cy="160.15968"
         sodipodi:r1="84.717178"
         sodipodi:r2="42.358585"
         sodipodi:arg1="0.78539816"
         sodipodi:arg2="1.8325957"
         inkscape:rounded="0"
         inkscape:randomized="0"
         d="M 184.35488,220.06377 113.48758,201.07493 42.62028,182.0861 94.498747,130.20764 146.37721,78.329173 165.36604,149.19647 Z"
         transform="matrix(0.01438074,0.05366967,-0.05366967,0.01438074,217.17819,103.09077)"
         inkscape:transform-center-x="-1.1767845"
         inkscape:transform-center-y="-2.4920653e-06" />
      <path
         sodipodi:type="star"
         style="fill:#3a1f09;fill-opacity:1;fill-rule:evenodd;stroke:#180e06;stroke-width:29.7501;stroke-dasharray:none;stroke-opacity:1"
         id="path31"
         inkscape:flatsided="false"
         sodipodi:sides="3"
         sodipodi:cx="124.45079"
         sodipodi:cy="160.15968"
         sodipodi:r1="84.717178"
         sodipodi:r2="42.358585"
         sodipodi:arg1="0.78539816"
         sodipodi:arg2="1.8325957"
         inkscape:rounded="0"
         inkscape:randomized="0"
         d="M 184.35488,220.06377 113.48758,201.07493 42.62028,182.0861 94.498747,130.20764 146.37721,78.329173 165.36604,149.19647 Z"
         transform="matrix(0.01438074,0.05366967,-0.05366967,0.01438074,217.17819,57.251713)"
         inkscape:transform-center-x="-1.1767845"
         inkscape:transform-center-y="-2.4920653e-06" />
      <path
         sodipodi:type="star"
         style="fill:#3a1f09;fill-opacity:1;fill-rule:evenodd;stroke:#180e06;stroke-width:29.7501;stroke-dasharray:none;stroke-opacity:1"
         id="path32"
         inkscape:flatsided="false"
         sodipodi:sides="3"
         sodipodi:cx="124.45079"
         sodipodi:cy="160.15968"
         sodipodi:r1="84.717178"
         sodipodi:r2="42.358585"
         sodipodi:arg1="0.78539816"
         sodipodi:arg2="1.8325957"
         inkscape:rounded="0"
         inkscape:randomized="0"
         d="M 184.35488,220.06377 113.48758,201.07493 42.62028,182.0861 94.498747,130.20764 146.37721,78.329173 165.36604,149.19647 Z"
         transform="matrix(0.01438074,0.05366967,-0.05366967,0.01438074,217.17819,72.531398)"
         inkscape:transform-center-x="-1.1767845"
         inkscape:transform-center-y="-2.4920653e-06" />
      <path
         sodipodi:type="star"
         style="fill:#3a1f09;fill-opacity:1;fill-rule:evenodd;stroke:#180e06;stroke-width:29.7501;stroke-dasharray:none;stroke-opacity:1"
         id="path33"
         inkscape:flatsided="false"
         sodipodi:sides="3"
         sodipodi:cx="124.45079"
         sodipodi:cy="160.15968"
         sodipodi:r1="84.717178"
         sodipodi:r2="42.358585"
         sodipodi:arg1="0.78539816"
         sodipodi:arg2="1.8325957"
         inkscape:rounded="0"
         inkscape:randomized="0"
         d="M 184.35488,220.06377 113.48758,201.07493 42.62028,182.0861 94.498747,130.20764 146.37721,78.329173 165.36604,149.19647 Z"
         transform="matrix(0.01438074,0.05366967,-0.05366967,0.01438074,217.17819,87.811084)"
         inkscape:transform-center-x="-1.1767845"
         inkscape:transform-center-y="-2.4920653e-06" />
      <path
         sodipodi:type="star"
         style="fill:#3a1f09;fill-opacity:1;fill-rule:evenodd;stroke:#180e06;stroke-width:29.7501;stroke-dasharray:none;stroke-opacity:1"
         id="path34"
         inkscape:flatsided="false"
         sodipodi:sides="3"
         sodipodi:cx="124.45079"
         sodipodi:cy="160.15968"
         sodipodi:r1="84.717178"
         sodipodi:r2="42.358585"
         sodipodi:arg1="0.78539816"
         sodipodi:arg2="1.8325957"
         inkscape:rounded="0"
         inkscape:randomized="0"
         d="M 184.35488,220.06377 113.48758,201.07493 42.62028,182.0861 94.498747,130.20764 146.37721,78.329173 165.36604,149.19647 Z"
         transform="matrix(0.01438074,0.05366967,-0.05366967,0.01438074,217.17819,41.972027)"
         inkscape:transform-center-x="-1.1767845"
         inkscape:transform-center-y="-2.4920653e-06" />
    </g>
    <g
       id="g35"
       transform="translate(-0.68387415,-0.79375001)"
       style="fill:#3a1f09;fill-opacity:1">
      <path
         sodipodi:type="star"
         style="fill:#3a1f09;fill-opacity:1;fill-rule:evenodd;stroke:#180e06;stroke-width:29.7501;stroke-dasharray:none;stroke-opacity:1"
         id="path10"
         inkscape:flatsided="false"
         sodipodi:sides="3"
         sodipodi:cx="124.45079"
         sodipodi:cy="160.15968"
         sodipodi:r1="84.717178"
         sodipodi:r2="42.358585"
         sodipodi:arg1="0.78539816"
         sodipodi:arg2="1.8325957"
         inkscape:rounded="0"
         inkscape:randomized="0"
         d="M 184.35488,220.06377 113.48758,201.07493 42.62028,182.0861 94.498747,130.20764 146.37721,78.329173 165.36604,149.19647 Z"
         transform="matrix(0.05366967,0.01438074,0.01438074,-0.05366967,33.808018,130.15175)"
         inkscape:transform-center-x="2.4832748e-06"
         inkscape:transform-center-y="-1.1767843" />
      <path
         sodipodi:type="star"
         style="fill:#3a1f09;fill-opacity:1;fill-rule:evenodd;stroke:#180e06;stroke-width:29.7501;stroke-dasharray:none;stroke-opacity:1"
         id="path11"
         inkscape:flatsided="false"
         sodipodi:sides="3"
         sodipodi:cx="124.45079"
         sodipodi:cy="160.15968"
         sodipodi:r1="84.717178"
         sodipodi:r2="42.358585"
         sodipodi:arg1="0.78539816"
         sodipodi:arg2="1.8325957"
         inkscape:rounded="0"
         inkscape:randomized="0"
         d="M 184.35488,220.06377 113.48758,201.07493 42.62028,182.0861 94.498747,130.20764 146.37721,78.329173 165.36604,149.19647 Z"
         transform="matrix(0.05366967,0.01438074,0.01438074,-0.05366967,51.064734,130.15175)"
         inkscape:transform-center-x="2.4832748e-06"
         inkscape:transform-center-y="-1.1767843" />
      <path
         sodipodi:type="star"
         style="fill:#3a1f09;fill-opacity:1;fill-rule:evenodd;stroke:#180e06;stroke-width:29.7501;stroke-dasharray:none;stroke-opacity:1"
         id="path12"
         inkscape:flatsided="false"
         sodipodi:sides="3"
         sodipodi:cx="124.45079"
         sodipodi:cy="160.15968"
         sodipodi:r1="84.717178"
         sodipodi:r2="42.358585"
         sodipodi:arg1="0.78539816"
         sodipodi:arg2="1.8325957"
         inkscape:rounded="0"
         inkscape:randomized="0"
         d="M 184.35488,220.06377 113.48758,201.07493 42.62028,182.0861 94.498747,130.20764 146.37721,78.329173 165.36604,149.19647 Z"
         transform="matrix(0.05366967,0.01438074,0.01438074,-0.05366967,68.32145,130.15175)"
         inkscape:transform-center-x="2.4832748e-06"
         inkscape:transform-center-y="-1.1767843" />
      <path
         sodipodi:type="star"
         style="fill:#3a1f09;fill-opacity:1;fill-rule:evenodd;stroke:#180e06;stroke-width:29.7501;stroke-dasharray:none;stroke-opacity:1"
         id="path13"
         inkscape:flatsided="false"
         sodipodi:sides="3"
         sodipodi:cx="124.45079"
         sodipodi:cy="160.15968"
         sodipodi:r1="84.717178"
         sodipodi:r2="42.358585"
         sodipodi:arg1="0.78539816"
         sodipodi:arg2="1.8325957"
         inkscape:rounded="0"
         inkscape:randomized="0"
         d="M 184.35488,220.06377 113.48758,201.07493 42.62028,182.0861 94.498747,130.20764 146.37721,78.329173 165.36604,149.19647 Z"
         transform="matrix(0.05366967,0.01438074,0.01438074,-0.05366967,154.60503,130.15175)"
         inkscape:transform-center-x="2.4832748e-06"
         inkscape:transform-center-y="-1.1767843" />
      <path
         sodipodi:type="star"
         style="fill:#3a1f09;fill-opacity:1;fill-rule:evenodd;stroke:#180e06;stroke-width:29.7501;stroke-dasharray:none;stroke-opacity:1"
         id="path14"
         inkscape:flatsided="false"
         sodipodi:sides="3"
         sodipodi:cx="124.45079"
         sodipodi:cy="160.15968"
         sodipodi:r1="84.717178"
         sodipodi:r2="42.358585"
         sodipodi:arg1="0.78539816"
         sodipodi:arg2="1.8325957"
         inkscape:rounded="0"
         inkscape:randomized="0"
         d="M 184.35488,220.06377 113.48758,201.07493 42.62028,182.0861 94.498747,130.20764 146.37721,78.329173 165.36604,149.19647 Z"
         transform="matrix(0.05366967,0.01438074,0.01438074,-0.05366967,189.11846,130.15175)"
         inkscape:transform-center-x="2.4832748e-06"
         inkscape:transform-center-y="-1.1767843" />
      <path
         sodipodi:type="star"
         style="fill:#3a1f09;fill-opacity:1;fill-rule:evenodd;stroke:#180e06;stroke-width:29.7501;stroke-dasharray:none;stroke-opacity:1"
         id="path15"
         inkscape:flatsided="false"
         sodipodi:sides="3"
         sodipodi:cx="124.45079"
         sodipodi:cy="160.15968"
         sodipodi:r1="84.717178"
         sodipodi:r2="42.358585"
         sodipodi:arg1="0.78539816"
         sodipodi:arg2="1.8325957"
         inkscape:rounded="0"
         inkscape:randomized="0"
         d="M 184.35488,220.06377 113.48758,201.07493 42.62028,182.0861 94.498747,130.20764 146.37721,78.329173 165.36604,149.19647 Z"
         transform="matrix(0.05366967,0.01438074,0.01438074,-0.05366967,120.0916,130.15175)"
         inkscape:transform-center-x="2.4832748e-06"
         inkscape:transform-center-y="-1.1767843" />
      <path
         sodipodi:type="star"
         style="fill:#3a1f09;fill-opacity:1;fill-rule:evenodd;stroke:#180e06;stroke-width:29.7501;stroke-dasharray:none;stroke-opacity:1"
         id="path16"
         inkscape:flatsided="false"
         sodipodi:sides="3"
         sodipodi:cx="124.45079"
         sodipodi:cy="160.15968"
         sodipodi:r1="84.717178"
         sodipodi:r2="42.358585"
         sodipodi:arg1="0.78539816"
         sodipodi:arg2="1.8325957"
         inkscape:rounded="0"
         inkscape:randomized="0"
         d="M 184.35488,220.06377 113.48758,201.07493 42.62028,182.0861 94.498747,130.20764 146.37721,78.329173 165.36604,149.19647 Z"
         transform="matrix(0.05366967,0.01438074,0.01438074,-0.05366967,102.83488,130.15175)"
         inkscape:transform-center-x="2.4832748e-06"
         inkscape:transform-center-y="-1.1767843" />
      <path
         sodipodi:type="star"
         style="fill:#3a1f09;fill-opacity:1;fill-rule:evenodd;stroke:#180e06;stroke-width:29.7501;stroke-dasharray:none;stroke-opacity:1"
         id="path17"
         inkscape:flatsided="false"
         sodipodi:sides="3"
         sodipodi:cx="124.45079"
         sodipodi:cy="160.15968"
         sodipodi:r1="84.717178"
         sodipodi:r2="42.358585"
         sodipodi:arg1="0.78539816"
         sodipodi:arg2="1.8325957"
         inkscape:rounded="0"
         inkscape:randomized="0"
         d="M 184.35488,220.06377 113.48758,201.07493 42.62028,182.0861 94.498747,130.20764 146.37721,78.329173 165.36604,149.19647 Z"
         transform="matrix(0.05366967,0.01438074,0.01438074,-0.05366967,85.578165,130.15175)"
         inkscape:transform-center-x="2.4832748e-06"
         inkscape:transform-center-y="-1.1767843" />
      <path
         sodipodi:type="star"
         style="fill:#3a1f09;fill-opacity:1;fill-rule:evenodd;stroke:#180e06;stroke-width:29.7501;stroke-dasharray:none;stroke-opacity:1"
         id="path18"
         inkscape:flatsided="false"
         sodipodi:sides="3"
         sodipodi:cx="124.45079"
         sodipodi:cy="160.15968"
         sodipodi:r1="84.717178"
         sodipodi:r2="42.358585"
         sodipodi:arg1="0.78539816"
         sodipodi:arg2="1.8325957"
         inkscape:rounded="0"
         inkscape:randomized="0"
         d="M 184.35488,220.06377 113.48758,201.07493 42.62028,182.0861 94.498747,130.20764 146.37721,78.329173 165.36604,149.19647 Z"
         transform="matrix(0.05366967,0.01438074,0.01438074,-0.05366967,137.34831,130.15175)"
         inkscape:transform-center-x="2.4832748e-06"
         inkscape:transform-center-y="-1.1767843" />
      <path
         sodipodi:type="star"
         style="fill:#3a1f09;fill-opacity:1;fill-rule:evenodd;stroke:#180e06;stroke-width:29.7501;stroke-dasharray:none;stroke-opacity:1"
         id="path35"
         inkscape:flatsided="false"
         sodipodi:sides="3"
         sodipodi:cx="124.45079"
         sodipodi:cy="160.15968"
         sodipodi:r1="84.717178"
         sodipodi:r2="42.358585"
         sodipodi:arg1="0.78539816"
         sodipodi:arg2="1.8325957"
         inkscape:rounded="0"
         inkscape:randomized="0"
         d="M 184.35488,220.06377 113.48758,201.07493 42.62028,182.0861 94.498747,130.20764 146.37721,78.329173 165.36604,149.19647 Z"
         transform="matrix(0.05366967,0.01438074,0.01438074,-0.05366967,171.86174,130.15175)"
         inkscape:transform-center-x="2.4832748e-06"
         inkscape:transform-center-y="-1.1767843" />
    </g>
    <g
       id="g45"
       transform="matrix(1,0,0,-1,-0.68387415,163.48451)"
       style="fill:#3a1f09;fill-opacity:1">
      <path
         sodipodi:type="star"
         style="fill:#3a1f09;fill-opacity:1;fill-rule:evenodd;stroke:#180e06;stroke-width:29.7501;stroke-dasharray:none;stroke-opacity:1"
         id="path36"
         inkscape:flatsided="false"
         sodipodi:sides="3"
         sodipodi:cx="124.45079"
         sodipodi:cy="160.15968"
         sodipodi:r1="84.717178"
         sodipodi:r2="42.358585"
         sodipodi:arg1="0.78539816"
         sodipodi:arg2="1.8325957"
         inkscape:rounded="0"
         inkscape:randomized="0"
         d="M 184.35488,220.06377 113.48758,201.07493 42.62028,182.0861 94.498747,130.20764 146.37721,78.329173 165.36604,149.19647 Z"
         transform="matrix(0.05366967,0.01438074,0.01438074,-0.05366967,33.808018,130.15175)"
         inkscape:transform-center-x="2.4832748e-06"
         inkscape:transform-center-y="-1.1767843" />
      <path
         sodipodi:type="star"
         style="fill:#3a1f09;fill-opacity:1;fill-rule:evenodd;stroke:#180e06;stroke-width:29.7501;stroke-dasharray:none;stroke-opacity:1"
         id="path37"
         inkscape:flatsided="false"
         sodipodi:sides="3"
         sodipodi:cx="124.45079"
         sodipodi:cy="160.15968"
         sodipodi:r1="84.717178"
         sodipodi:r2="42.358585"
         sodipodi:arg1="0.78539816"
         sodipodi:arg2="1.8325957"
         inkscape:rounded="0"
         inkscape:randomized="0"
         d="M 184.35488,220.06377 113.48758,201.07493 42.62028,182.0861 94.498747,130.20764 146.37721,78.329173 165.36604,149.19647 Z"
         transform="matrix(0.05366967,0.01438074,0.01438074,-0.05366967,51.064734,130.15175)"
         inkscape:transform-center-x="2.4832748e-06"
         inkscape:transform-center-y="-1.1767843" />
      <path
         sodipodi:type="star"
         style="fill:#3a1f09;fill-opacity:1;fill-rule:evenodd;stroke:#180e06;stroke-width:29.7501;stroke-dasharray:none;stroke-opacity:1"
         id="path38"
         inkscape:flatsided="false"
         sodipodi:sides="3"
         sodipodi:cx="124.45079"
         sodipodi:cy="160.15968"
         sodipodi:r1="84.717178"
         sodipodi:r2="42.358585"
         sodipodi:arg1="0.78539816"
         sodipodi:arg2="1.8325957"
         inkscape:rounded="0"
         inkscape:randomized="0"
         d="M 184.35488,220.06377 113.48758,201.07493 42.62028,182.0861 94.498747,130.20764 146.37721,78.329173 165.36604,149.19647 Z"
         transform="matrix(0.05366967,0.01438074,0.01438074,-0.05366967,68.32145,130.15175)"
         inkscape:transform-center-x="2.4832748e-06"
         inkscape:transform-center-y="-1.1767843" />
      <path
         sodipodi:type="star"
         style="fill:#3a1f09;fill-opacity:1;fill-rule:evenodd;stroke:#180e06;stroke-width:29.7501;stroke-dasharray:none;stroke-opacity:1"
         id="path39"
         inkscape:flatsided="false"
         sodipodi:sides="3"
         sodipodi:cx="124.45079"
         sodipodi:cy="160.15968"
         sodipodi:r1="84.717178"
         sodipodi:r2="42.358585"
         sodipodi:arg1="0.78539816"
         sodipodi:arg2="1.8325957"
         inkscape:rounded="0"
         inkscape:randomized="0"
         d="M 184.35488,220.06377 113.48758,201.07493 42.62028,182.0861 94.498747,130.20764 146.37721,78.329173 165.36604,149.19647 Z"
         transform="matrix(0.05366967,0.01438074,0.01438074,-0.05366967,154.60503,130.15175)"
         inkscape:transform-center-x="2.4832748e-06"
         inkscape:transform-center-y="-1.1767843" />
      <path
         sodipodi:type="star"
         style="fill:#3a1f09;fill-opacity:1;fill-rule:evenodd;stroke:#180e06;stroke-width:29.7501;stroke-dasharray:none;stroke-opacity:1"
         id="path40"
         inkscape:flatsided="false"
         sodipodi:sides="3"
         sodipodi:cx="124.45079"
         sodipodi:cy="160.15968"
         sodipodi:r1="84.717178"
         sodipodi:r2="42.358585"
         sodipodi:arg1="0.78539816"
         sodipodi:arg2="1.8325957"
         inkscape:rounded="0"
         inkscape:randomized="0"
         d="M 184.35488,220.06377 113.48758,201.07493 42.62028,182.0861 94.498747,130.20764 146.37721,78.329173 165.36604,149.19647 Z"
         transform="matrix(0.05366967,0.01438074,0.01438074,-0.05366967,189.11846,130.15175)"
         inkscape:transform-center-x="2.4832748e-06"
         inkscape:transform-center-y="-1.1767843" />
      <path
         sodipodi:type="star"
         style="fill:#3a1f09;fill-opacity:1;fill-rule:evenodd;stroke:#180e06;stroke-width:29.7501;stroke-dasharray:none;stroke-opacity:1"
         id="path41"
         inkscape:flatsided="false"
         sodipodi:sides="3"
         sodipodi:cx="124.45079"
         sodipodi:cy="160.15968"
         sodipodi:r1="84.717178"
         sodipodi:r2="42.358585"
         sodipodi:arg1="0.78539816"
         sodipodi:arg2="1.8325957"
         inkscape:rounded="0"
         inkscape:randomized="0"
         d="M 184.35488,220.06377 113.48758,201.07493 42.62028,182.0861 94.498747,130.20764 146.37721,78.329173 165.36604,149.19647 Z"
         transform="matrix(0.05366967,0.01438074,0.01438074,-0.05366967,120.0916,130.15175)"
         inkscape:transform-center-x="2.4832748e-06"
         inkscape:transform-center-y="-1.1767843" />
      <path
         sodipodi:type="star"
         style="fill:#3a1f09;fill-opacity:1;fill-rule:evenodd;stroke:#180e06;stroke-width:29.7501;stroke-dasharray:none;stroke-opacity:1"
         id="path42"
         inkscape:flatsided="false"
         sodipodi:sides="3"
         sodipodi:cx="124.45079"
         sodipodi:cy="160.15968"
         sodipodi:r1="84.717178"
         sodipodi:r2="42.358585"
         sodipodi:arg1="0.78539816"
         sodipodi:arg2="1.8325957"
         inkscape:rounded="0"
         inkscape:randomized="0"
         d="M 184.35488,220.06377 113.48758,201.07493 42.62028,182.0861 94.498747,130.20764 146.37721,78.329173 165.36604,149.19647 Z"
         transform="matrix(0.05366967,0.01438074,0.01438074,-0.05366967,102.83488,130.15175)"
         inkscape:transform-center-x="2.4832748e-06"
         inkscape:transform-center-y="-1.1767843" />
      <path
         sodipodi:type="star"
         style="fill:#3a1f09;fill-opacity:1;fill-rule:evenodd;stroke:#180e06;stroke-width:29.7501;stroke-dasharray:none;stroke-opacity:1"
         id="path43"
         inkscape:flatsided="false"
         sodipodi:sides="3"
         sodipodi:cx="124.45079"
         sodipodi:cy="160.15968"
         sodipodi:r1="84.717178"
         sodipodi:r2="42.358585"
         sodipodi:arg1="0.78539816"
         sodipodi:arg2="1.8325957"
         inkscape:rounded="0"
         inkscape:randomized="0"
         d="M 184.35488,220.06377 113.48758,201.07493 42.62028,182.0861 94.498747,130.20764 146.37721,78.329173 165.36604,149.19647 Z"
         transform="matrix(0.05366967,0.01438074,0.01438074,-0.05366967,85.578165,130.15175)"
         inkscape:transform-center-x="2.4832748e-06"
         inkscape:transform-center-y="-1.1767843" />
      <path
         sodipodi:type="star"
         style="fill:#3a1f09;fill-opacity:1;fill-rule:evenodd;stroke:#180e06;stroke-width:29.7501;stroke-dasharray:none;stroke-opacity:1"
         id="path44"
         inkscape:flatsided="false"
         sodipodi:sides="3"
         sodipodi:cx="124.45079"
         sodipodi:cy="160.15968"
         sodipodi:r1="84.717178"
         sodipodi:r2="42.358585"
         sodipodi:arg1="0.78539816"
         sodipodi:arg2="1.8325957"
         inkscape:rounded="0"
         inkscape:randomized="0"
         d="M 184.35488,220.06377 113.48758,201.07493 42.62028,182.0861 94.498747,130.20764 146.37721,78.329173 165.36604,149.19647 Z"
         transform="matrix(0.05366967,0.01438074,0.01438074,-0.05366967,137.34831,130.15175)"
         inkscape:transform-center-x="2.4832748e-06"
         inkscape:transform-center-y="-1.1767843" />
      <path
         sodipodi:type="star"
         style="fill:#3a1f09;fill-opacity:1;fill-rule:evenodd;stroke:#180e06;stroke-width:29.7501;stroke-dasharray:none;stroke-opacity:1"
         id="path45"
         inkscape:flatsided="false"
         sodipodi:sides="3"
         sodipodi:cx="124.45079"
         sodipodi:cy="160.15968"
         sodipodi:r1="84.717178"
         sodipodi:r2="42.358585"
         sodipodi:arg1="0.78539816"
         sodipodi:arg2="1.8325957"
         inkscape:rounded="0"
         inkscape:randomized="0"
         d="M 184.35488,220.06377 113.48758,201.07493 42.62028,182.0861 94.498747,130.20764 146.37721,78.329173 165.36604,149.19647 Z"
         transform="matrix(0.05366967,0.01438074,0.01438074,-0.05366967,171.86174,130.15175)"
         inkscape:transform-center-x="2.4832748e-06"
         inkscape:transform-center-y="-1.1767843" />
    </g>
    <g
       id="g49"
       style="fill:#3a1f09;fill-opacity:1">
      <path
         sodipodi:type="star"
         style="fill:#3a1f09;fill-opacity:1;fill-rule:evenodd;stroke:#180e06;stroke-width:5.5805786;stroke-dasharray:none;stroke-opacity:1"
         id="path46"
         inkscape:flatsided="false"
         sodipodi:sides="9"
         sodipodi:cx="-171.82695"
         sodipodi:cy="20.152542"
         sodipodi:r1="147.68378"
         sodipodi:r2="147.68378"
         sodipodi:arg1="0.57737883"
         sodipodi:arg2="0.96625771"
         inkscape:rounded="4.18"
         inkscape:randomized="0"
         d="M -48.083269,100.76271 C -186.15617,295.29556 102.82546,-1.6432999 -87.886072,141.6615 -239.90031,255.88831 55.12993,113.4044 -128.84901,161.44442 c -230.81328,60.26925 181.428109,18.5547 -56.77995,5.74554 -189.87324,-10.21005 127.719925,70.28272 -44.09564,-11.17587 -215.55357,-102.194992 127.05525,130.83347 -47.18913,-32.09611 -138.88845,-129.8695234 52.66227,135.93647 -26.59551,-36.905351 -99.43394,-216.841059 13.23184,181.893801 -15.51799,-54.919633 -22.9162,-188.761596 -47.03664,137.984034 3.34895,-45.366403 63.21194,-230.024793 -106.7829,147.843997 23.41419,-52.045651 103.77879,-159.330022 -124.72658,75.467338 31.72642,-32.600012 196.280235,-135.57737 -176.83274,44.616348 51.39061,-24.81893 181.914525,-55.34616 -144.05558,-22.36137 45.25872,-4.57971 237.50684,22.30821 -164.14057,-79.48779 55.3208,14.02084 174.930434,74.534786 -95.97937,-109.72694 37.613974,25.583484 C 96.64778,82.042152 -145.59877,-254.11209 -37.587806,-41.413276 48.506648,128.1268 -40.581145,-187.16334 -25.218573,2.362609 -5.9452489,240.13496 24.558905,-173.08721 -29.420054,59.277648 -72.446138,244.49333 61.973248,-54.297458 -48.083269,100.76271 Z"
         transform="matrix(0.18080518,0,0,0.18080607,150.8979,77.776885)"
         inkscape:transform-center-x="1.8337469"
         inkscape:transform-center-y="-4.8463842" />
      <g
         id="g48"
         transform="translate(1.970596)"
         style="fill:#3a1f09;fill-opacity:1">
        <path
           sodipodi:type="star"
           style="font-variation-settings:normal;opacity:1;fill:#3a1f09;fill-opacity:1;fill-rule:evenodd;stroke:#180e06;stroke-width:5.77309;stroke-linecap:butt;stroke-linejoin:miter;stroke-miterlimit:4;stroke-dasharray:none;stroke-dashoffset:0;stroke-opacity:1;stop-color:#000000;stop-opacity:1"
           id="path47"
           inkscape:flatsided="false"
           sodipodi:sides="9"
           sodipodi:cx="-171.82695"
           sodipodi:cy="20.152542"
           sodipodi:r1="147.68378"
           sodipodi:r2="147.68378"
           sodipodi:arg1="0.57737883"
           sodipodi:arg2="0.96625771"
           inkscape:rounded="4.18"
           inkscape:randomized="0"
           d="M -48.083269,100.76271 C -186.15617,295.29556 102.82546,-1.6432999 -87.886072,141.6615 -239.90031,255.88831 55.12993,113.4044 -128.84901,161.44442 c -230.81328,60.26925 181.428109,18.5547 -56.77995,5.74554 -189.87324,-10.21005 127.719925,70.28272 -44.09564,-11.17587 -215.55357,-102.194992 127.05525,130.83347 -47.18913,-32.09611 -138.88845,-129.8695234 52.66227,135.93647 -26.59551,-36.905351 -99.43394,-216.841059 13.23184,181.893801 -15.51799,-54.919633 -22.9162,-188.761596 -47.03664,137.984034 3.34895,-45.366403 63.21194,-230.024793 -106.7829,147.843997 23.41419,-52.045651 103.77879,-159.330022 -124.72658,75.467338 31.72642,-32.600012 196.280235,-135.57737 -176.83274,44.616348 51.39061,-24.81893 181.914525,-55.34616 -144.05558,-22.36137 45.25872,-4.57971 237.50684,22.30821 -164.14057,-79.48779 55.3208,14.02084 174.930434,74.534786 -95.97937,-109.72694 37.613974,25.583484 C 96.64778,82.042152 -145.59877,-254.11209 -37.587806,-41.413276 48.506648,128.1268 -40.581145,-187.16334 -25.218573,2.362609 -5.9452489,240.13496 24.558905,-173.08721 -29.420054,59.277648 -72.446138,244.49333 61.973248,-54.297458 -48.083269,100.76271 Z"
           transform="matrix(0.08816746,0,0,0.0881679,191.44731,79.613325)"
           inkscape:transform-center-x="0.89420873"
           inkscape:transform-center-y="-2.3632805" />
        <path
           sodipodi:type="star"
           style="font-variation-settings:normal;opacity:1;fill:#3a1f09;fill-opacity:1;fill-rule:evenodd;stroke:#180e06;stroke-width:5.77309;stroke-linecap:butt;stroke-linejoin:miter;stroke-miterlimit:4;stroke-dasharray:none;stroke-dashoffset:0;stroke-opacity:1;stop-color:#000000;stop-opacity:1"
           id="path48"
           inkscape:flatsided="false"
           sodipodi:sides="9"
           sodipodi:cx="-171.82695"
           sodipodi:cy="20.152542"
           sodipodi:r1="147.68378"
           sodipodi:r2="147.68378"
           sodipodi:arg1="0.57737883"
           sodipodi:arg2="0.96625771"
           inkscape:rounded="4.18"
           inkscape:randomized="0"
           d="M -48.083269,100.76271 C -186.15617,295.29556 102.82546,-1.6432999 -87.886072,141.6615 -239.90031,255.88831 55.12993,113.4044 -128.84901,161.44442 c -230.81328,60.26925 181.428109,18.5547 -56.77995,5.74554 -189.87324,-10.21005 127.719925,70.28272 -44.09564,-11.17587 -215.55357,-102.194992 127.05525,130.83347 -47.18913,-32.09611 -138.88845,-129.8695234 52.66227,135.93647 -26.59551,-36.905351 -99.43394,-216.841059 13.23184,181.893801 -15.51799,-54.919633 -22.9162,-188.761596 -47.03664,137.984034 3.34895,-45.366403 63.21194,-230.024793 -106.7829,147.843997 23.41419,-52.045651 103.77879,-159.330022 -124.72658,75.467338 31.72642,-32.600012 196.280235,-135.57737 -176.83274,44.616348 51.39061,-24.81893 181.914525,-55.34616 -144.05558,-22.36137 45.25872,-4.57971 237.50684,22.30821 -164.14057,-79.48779 55.3208,14.02084 174.930434,74.534786 -95.97937,-109.72694 37.613974,25.583484 C 96.64778,82.042152 -145.59877,-254.11209 -37.587806,-41.413276 48.506648,128.1268 -40.581145,-187.16334 -25.218573,2.362609 -5.9452489,240.13496 24.558905,-173.08721 -29.420054,59.277648 -72.446138,244.49333 61.973248,-54.297458 -48.083269,100.76271 Z"
           transform="matrix(0.08816746,0,0,0.0881679,74.501385,79.613326)"
           inkscape:transform-center-x="0.89420873"
           inkscape:transform-center-y="-2.3632805" />
      </g>
    </g>
  </g>
</svg>
