<?xml version="1.0" encoding="UTF-8" standalone="no"?>
<!-- Created with Inkscape (http://www.inkscape.org/) -->

<svg
   width="64.209351mm"
   height="99.699982mm"
   viewBox="0 0 64.20935 99.699978"
   version="1.1"
   id="svg1"
   inkscape:version="1.3.2 (091e20ef0f, 2023-11-25, custom)"
   sodipodi:docname="side_table2.svg"
   xmlns:inkscape="http://www.inkscape.org/namespaces/inkscape"
   xmlns:sodipodi="http://sodipodi.sourceforge.net/DTD/sodipodi-0.dtd"
   xmlns="http://www.w3.org/2000/svg"
   xmlns:svg="http://www.w3.org/2000/svg">
  <sodipodi:namedview
     id="namedview1"
     pagecolor="#505050"
     bordercolor="#eeeeee"
     borderopacity="1"
     inkscape:showpageshadow="0"
     inkscape:pageopacity="0"
     inkscape:pagecheckerboard="0"
     inkscape:deskcolor="#505050"
     inkscape:document-units="mm"
     inkscape:zoom="2.8284271"
     inkscape:cx="18.561553"
     inkscape:cy="310.95021"
     inkscape:window-width="2560"
     inkscape:window-height="1413"
     inkscape:window-x="0"
     inkscape:window-y="0"
     inkscape:window-maximized="0"
     inkscape:current-layer="layer1" />
  <defs
     id="defs1" />
  <g
     inkscape:label="Layer 1"
     inkscape:groupmode="layer"
     id="layer1"
     transform="translate(-59.347381,-78.20311)">
    <rect
       style="fill:#27180e;fill-rule:evenodd;stroke:#120503;stroke-width:3.584;stroke-dasharray:none"
       id="rect1"
       width="60.625351"
       height="96.115982"
       x="61.139381"
       y="79.99511" />
    <g
       id="g84"
       transform="rotate(-95.749047,25.367561,108.79784)">
      <rect
         style="fill:#827e66;fill-opacity:1;fill-rule:evenodd;stroke:#110b03;stroke-width:1.684;stroke-dasharray:none;stroke-opacity:1"
         id="rect80"
         width="15.619656"
         height="7.3196874"
         x="-12.494664"
         y="147.94041" />
      <rect
         style="fill:#666666;fill-opacity:1;fill-rule:evenodd;stroke:#110b03;stroke-width:1.684;stroke-dasharray:none;stroke-opacity:1"
         id="rect81"
         width="15.619656"
         height="13.7641"
         x="-12.494664"
         y="153.86739" />
      <g
         id="g83"
         transform="matrix(0.46903358,0,0,0.44159345,-6.2739256,93.132648)"
         style="stroke-width:2.19728">
        <rect
           style="fill:#827e66;fill-opacity:1;fill-rule:evenodd;stroke:none;stroke-width:3.70023;stroke-dasharray:none;stroke-opacity:1"
           id="rect82"
           width="5.8208332"
           height="27.344067"
           x="-6.9307432"
           y="139.44484" />
        <rect
           style="fill:#827e66;fill-opacity:1;fill-rule:evenodd;stroke:none;stroke-width:3.70023;stroke-dasharray:none;stroke-opacity:1"
           id="rect83"
           width="5.8208332"
           height="27.344067"
           x="7.8859239"
           y="139.44484" />
      </g>
    </g>
    <g
       id="g44"
       transform="matrix(2.5356542,0,0,2.5356542,-1.4912477,-205.52558)">
      <circle
         style="fill:#1c1c1b;fill-opacity:1;fill-rule:evenodd;stroke:#212222;stroke-width:0.964;stroke-dasharray:none;stroke-opacity:1"
         id="path44"
         cx="36.453449"
         cy="125.05939"
         r="6.7036843" />
      <path
         style="fill:#2a382b;fill-opacity:1;fill-rule:evenodd;stroke:#212222;stroke-width:0.2;stroke-dasharray:none;stroke-opacity:1"
         d="m 33.763772,125.24081 c 0,0 1.038212,2.90877 0.903961,4.22444 l -0.420655,-0.27746 c 0,0 -0.205852,-1.44991 -0.886061,-3.88433 z"
         id="path42"
         sodipodi:nodetypes="ccccc" />
      <path
         style="fill:#2a382b;fill-opacity:1;fill-rule:evenodd;stroke:#212222;stroke-width:0.2;stroke-dasharray:none;stroke-opacity:1"
         d="m 37.562257,121.17747 c 0,0 -1.038211,2.90877 -0.90396,4.22444 l 0.420654,-0.27746 c 0,0 0.205852,-1.44991 0.886061,-3.88433 z"
         id="path43"
         sodipodi:nodetypes="ccccc" />
      <path
         style="fill:#2a382b;fill-opacity:1;fill-rule:evenodd;stroke:#212222;stroke-width:0.2;stroke-dasharray:none;stroke-opacity:1"
         d="m 39.657513,125.93782 c 0,0 -1.584592,2.65101 -1.709027,3.96765 l 0.466619,-0.19027 c 0,0 0.484164,-1.3821 1.625262,-3.63753 z"
         id="path7"
         sodipodi:nodetypes="ccccc" />
      <g
         id="g6"
         transform="translate(-0.06206247,-13.63333)">
        <path
           style="fill:#969594;fill-opacity:1;fill-rule:evenodd;stroke:#2d2c2e;stroke-width:0.393646;stroke-dasharray:none;stroke-opacity:1"
           d="m 39.102254,128.3067 c -3.158849,-0.55954 -0.71385,5.68471 -0.71385,5.68471 0,0 4.441072,-5.02449 1.282224,-5.58403 z"
           id="path1"
           sodipodi:nodetypes="cccc" />
        <path
           style="fill:#969594;fill-opacity:1;fill-rule:evenodd;stroke:#2d2c2e;stroke-width:0.393646;stroke-dasharray:none;stroke-opacity:1"
           d="m 40.586538,138.84087 c -2.842253,1.48762 -2.397723,-5.2035 -2.397723,-5.2035 0,0 5.751385,3.44821 2.909132,4.93583 z"
           id="path2"
           sodipodi:nodetypes="cccc" />
        <path
           style="fill:#969594;fill-opacity:1;fill-rule:evenodd;stroke:#2d2c2e;stroke-width:0.393646;stroke-dasharray:none;stroke-opacity:1"
           d="m 33.220166,131.47685 c -1.452633,2.86029 5.232522,2.3337 5.232522,2.3337 0,0 -3.518516,-5.70865 -4.971149,-2.84835 z"
           id="path3"
           sodipodi:nodetypes="cccc" />
        <path
           style="fill:#969594;fill-opacity:1;fill-rule:evenodd;stroke:#2d2c2e;stroke-width:0.393646;stroke-dasharray:none;stroke-opacity:1"
           d="m 33.792646,137.50195 c 1.902854,2.58274 4.435584,-3.62643 4.435584,-3.62643 0,0 -6.680821,0.57897 -4.777967,3.16172 z"
           id="path4"
           sodipodi:nodetypes="cccc" />
        <path
           style="fill:#969594;fill-opacity:1;fill-rule:evenodd;stroke:#2d2c2e;stroke-width:0.393646;stroke-dasharray:none;stroke-opacity:1"
           d="m 43.859526,132.11085 c -0.813424,-3.10318 -5.461897,1.73007 -5.461897,1.73007 0,0 6.421681,1.93148 5.608257,-1.17171 z"
           id="path5"
           sodipodi:nodetypes="cccc" />
        <circle
           style="fill:#96954a;fill-opacity:1;fill-rule:evenodd;stroke:#2d2c2e;stroke-width:0.2;stroke-dasharray:none;stroke-opacity:1"
           id="path6"
           cx="38.412933"
           cy="133.71069"
           r="1.2309271" />
      </g>
      <g
         id="g36"
         transform="matrix(0.9087275,-0.41738991,-0.41738991,-0.9087275,62.030683,261.58295)">
        <path
           style="fill:#969594;fill-opacity:1;fill-rule:evenodd;stroke:#2d2c2e;stroke-width:0.393646;stroke-dasharray:none;stroke-opacity:1"
           d="m 39.102254,128.3067 c -3.158849,-0.55954 -0.71385,5.68471 -0.71385,5.68471 0,0 4.441072,-5.02449 1.282224,-5.58403 z"
           id="path32"
           sodipodi:nodetypes="cccc" />
        <path
           style="fill:#969594;fill-opacity:1;fill-rule:evenodd;stroke:#2d2c2e;stroke-width:0.393646;stroke-dasharray:none;stroke-opacity:1"
           d="m 40.586538,138.84087 c -2.842253,1.48762 -2.397723,-5.2035 -2.397723,-5.2035 0,0 5.751385,3.44821 2.909132,4.93583 z"
           id="path33"
           sodipodi:nodetypes="cccc" />
        <path
           style="fill:#969594;fill-opacity:1;fill-rule:evenodd;stroke:#2d2c2e;stroke-width:0.393646;stroke-dasharray:none;stroke-opacity:1"
           d="m 33.220166,131.47685 c -1.452633,2.86029 5.232522,2.3337 5.232522,2.3337 0,0 -3.518516,-5.70865 -4.971149,-2.84835 z"
           id="path34"
           sodipodi:nodetypes="cccc" />
        <path
           style="fill:#969594;fill-opacity:1;fill-rule:evenodd;stroke:#2d2c2e;stroke-width:0.393646;stroke-dasharray:none;stroke-opacity:1"
           d="m 33.792646,137.50195 c 1.902854,2.58274 4.435584,-3.62643 4.435584,-3.62643 0,0 -6.680821,0.57897 -4.777967,3.16172 z"
           id="path35"
           sodipodi:nodetypes="cccc" />
        <path
           style="fill:#969594;fill-opacity:1;fill-rule:evenodd;stroke:#2d2c2e;stroke-width:0.393646;stroke-dasharray:none;stroke-opacity:1"
           d="m 43.859526,132.11085 c -0.813424,-3.10318 -5.461897,1.73007 -5.461897,1.73007 0,0 6.421681,1.93148 5.608257,-1.17171 z"
           id="path36"
           sodipodi:nodetypes="cccc" />
        <circle
           style="fill:#96954a;fill-opacity:1;fill-rule:evenodd;stroke:#2d2c2e;stroke-width:0.2;stroke-dasharray:none;stroke-opacity:1"
           id="circle36"
           cx="38.412933"
           cy="133.71069"
           r="1.2309271" />
      </g>
      <g
         id="g41"
         transform="matrix(-0.41610113,0.90931834,0.90931834,0.41610113,-71.853447,34.135168)">
        <path
           style="fill:#969594;fill-opacity:1;fill-rule:evenodd;stroke:#2d2c2e;stroke-width:0.393646;stroke-dasharray:none;stroke-opacity:1"
           d="m 39.102254,128.3067 c -3.158849,-0.55954 -0.71385,5.68471 -0.71385,5.68471 0,0 4.441072,-5.02449 1.282224,-5.58403 z"
           id="path37"
           sodipodi:nodetypes="cccc" />
        <path
           style="fill:#969594;fill-opacity:1;fill-rule:evenodd;stroke:#2d2c2e;stroke-width:0.393646;stroke-dasharray:none;stroke-opacity:1"
           d="m 40.586538,138.84087 c -2.842253,1.48762 -2.397723,-5.2035 -2.397723,-5.2035 0,0 5.751385,3.44821 2.909132,4.93583 z"
           id="path38"
           sodipodi:nodetypes="cccc" />
        <path
           style="fill:#969594;fill-opacity:1;fill-rule:evenodd;stroke:#2d2c2e;stroke-width:0.393646;stroke-dasharray:none;stroke-opacity:1"
           d="m 33.220166,131.47685 c -1.452633,2.86029 5.232522,2.3337 5.232522,2.3337 0,0 -3.518516,-5.70865 -4.971149,-2.84835 z"
           id="path39"
           sodipodi:nodetypes="cccc" />
        <path
           style="fill:#969594;fill-opacity:1;fill-rule:evenodd;stroke:#2d2c2e;stroke-width:0.393646;stroke-dasharray:none;stroke-opacity:1"
           d="m 33.792646,137.50195 c 1.902854,2.58274 4.435584,-3.62643 4.435584,-3.62643 0,0 -6.680821,0.57897 -4.777967,3.16172 z"
           id="path40"
           sodipodi:nodetypes="cccc" />
        <path
           style="fill:#969594;fill-opacity:1;fill-rule:evenodd;stroke:#2d2c2e;stroke-width:0.393646;stroke-dasharray:none;stroke-opacity:1"
           d="m 43.859526,132.11085 c -0.813424,-3.10318 -5.461897,1.73007 -5.461897,1.73007 0,0 6.421681,1.93148 5.608257,-1.17171 z"
           id="path41"
           sodipodi:nodetypes="cccc" />
        <circle
           style="fill:#96954a;fill-opacity:1;fill-rule:evenodd;stroke:#2d2c2e;stroke-width:0.2;stroke-dasharray:none;stroke-opacity:1"
           id="circle41"
           cx="38.412933"
           cy="133.71069"
           r="1.2309271" />
      </g>
    </g>
    <path
       style="fill:#31180c;fill-opacity:1;fill-rule:evenodd;stroke:#110b03;stroke-width:0.4;stroke-dasharray:none;stroke-opacity:1"
       d="m 102.27771,135.08053 c -1.1771,0.71934 -2.11664,2.07376 -2.976569,3.10885 -2.375909,2.8599 -3.838206,6.16152 -5.556243,9.42579 -0.833012,1.58272 -1.676855,3.1323 -2.414323,4.7625 -0.39115,0.86464 -1.051089,1.7957 -1.223698,2.74505 -0.420169,2.31093 0.539705,4.43182 1.223698,6.58151 0.446825,1.40431 1.096105,2.70838 1.785937,4.00182 0.435637,0.81682 0.678969,1.72174 1.091406,2.54662 0.316408,0.63281 0.838116,1.07527 1.223698,1.65364 0.389499,0.58425 0.779249,1.1973 1.223698,1.75287 0.170567,0.21321 0.418894,0.34171 0.595313,0.56224 0.607277,0.75909 0.756342,4.53273 1.386368,5.26776 0.275622,0.32156 0.452526,0.0552 0.883266,0.19878 1.277369,-0.0244 3.796349,-0.0422 4.128279,-0.0234 0.58259,0.033 2.15028,-0.0216 3.23237,0 0.9801,0.0128 1.88113,-0.0263 2.85104,-0.0263 1.02629,0 2.09838,0.0486 3.12255,-0.0117 2.01644,-0.005 7.95379,0.0292 9.94062,0.0292 0.2829,0 0.52474,0.0203 0.51414,-0.31956 -0.0526,-1.68971 3.5e-4,-6.21791 3.5e-4,-8.01568 0,-1.28696 -0.084,-2.59263 0.0146,-3.87446 0.0235,-1.90802 -0.0339,-3.80284 -0.0234,-5.68945 0.006,-1.17012 -0.004,-2.33074 0.006,-3.43959 -0.0103,-0.67628 -0.002,-2.23089 0.006,-3.23237 0.0276,-1.0619 0.004,-2.14479 0.0263,-3.16933 0.008,-0.38338 10e-4,-0.80009 -0.0409,-1.18277 0.0122,-0.67879 0.0343,-1.91136 -0.009,-2.53212 -0.0365,-1.3299 0.0409,-1.95063 0.0322,-3.25564 -0.008,-1.24202 -0.0126,-2.33766 0,-3.50281 0.008,-0.71746 0.003,-1.09233 0.003,-1.74701 -6e-5,-0.43571 -0.008,-1.03088 0,-1.33438 -0.0203,-0.47602 0.009,-0.96732 -0.0146,-1.30854 -2.69795,-1.43348 -6.33039,-1.2828 -7.40593,-1.3275 -1.21169,-0.0713 -2.42276,-0.21597 -3.63802,-0.26458 -1.05521,-0.0422 -2.11837,0.0331 -3.175,0.0331 -0.78098,0 -1.6013,-0.11973 -2.38125,-0.0331 -0.79353,0.0882 -0.61593,0.85212 -1.27327,0.73494 -0.2157,-0.0385 -0.43251,6.3e-4 -0.9343,0.22781 -0.76533,0.28111 -1.58428,0.26674 -2.22413,0.65776 z"
       id="path78"
       sodipodi:nodetypes="sssssssssssscscscssscsccsccssscccsscscss" />
    <g
       id="g80"
       transform="matrix(1.2902766,0.87285384,-0.87285384,1.2902766,185.0476,-76.244581)">
      <g
         id="g68"
         transform="matrix(0.42005419,0.25688465,-0.25825869,0.41956696,50.593788,106.95835)"
         style="fill:#27230c;fill-opacity:1;stroke-width:3.45158;stroke-dasharray:none">
        <rect
           style="fill:#27230c;fill-opacity:1;fill-rule:evenodd;stroke:#110b03;stroke-width:3.45158;stroke-dasharray:none;stroke-opacity:1"
           id="rect63"
           width="25.517212"
           height="37.972042"
           x="7.2790217"
           y="96.722748"
           ry="5.1135683"
           rx="5.5692329" />
        <path
           style="fill:#27230c;fill-opacity:1;fill-rule:evenodd;stroke:#110b03;stroke-width:3.45158;stroke-dasharray:none;stroke-opacity:1"
           d="m 7.6625363,100.18754 c 0,0 9.7726817,-12.511101 9.7726817,-24.97155 h 5.207807 c 0,12.460449 9.772683,24.97155 9.772683,24.97155"
           id="path63"
           sodipodi:nodetypes="cccc" />
      </g>
      <g
         id="g78">
        <g
           id="g79">
          <rect
             style="fill:#62605e;fill-opacity:1;fill-rule:evenodd;stroke:none;stroke-width:1.08605;stroke-dasharray:none;stroke-opacity:1"
             id="rect64"
             width="10.829066"
             height="6.0449333"
             x="103.58533"
             y="118.50487"
             transform="matrix(0.85311473,0.52172335,-0.52419111,0.85160066,0,0)" />
          <path
             style="fill:none;fill-opacity:1;fill-rule:evenodd;stroke:#10110f;stroke-width:1.067;stroke-dasharray:none;stroke-opacity:1"
             d="m 26.211257,154.99723 9.306213,5.67478"
             id="path64"
             sodipodi:nodetypes="cc" />
          <path
             style="fill:none;fill-opacity:1;fill-rule:evenodd;stroke:#10110f;stroke-width:1.067;stroke-dasharray:none;stroke-opacity:1"
             d="m 22.978123,160.23222 9.282827,5.68647"
             id="path65"
             sodipodi:nodetypes="cc" />
        </g>
      </g>
      <g
         id="g77"
         transform="rotate(31.82737,26.044494,167.53052)">
        <g
           id="g76">
          <g
             id="g71"
             style="stroke-width:2.83376;stroke-dasharray:none"
             transform="matrix(0.3073679,-0.00223292,0.00264707,0.25927647,7.7405898,126.97647)">
            <path
               style="fill:#27230c;fill-opacity:1;fill-rule:evenodd;stroke:#110b03;stroke-width:2.83376;stroke-dasharray:none;stroke-opacity:1"
               d="M 47.88388,118.77571 38.372318,135.4867"
               id="path69" />
            <g
               id="g70"
               style="stroke-width:2.83376;stroke-dasharray:none">
              <path
                 style="fill:#27230c;fill-opacity:1;fill-rule:evenodd;stroke:#110b03;stroke-width:2.83376;stroke-dasharray:none;stroke-opacity:1"
                 d="m 38.372318,118.76955 9.511562,16.72331"
                 id="path70" />
            </g>
          </g>
          <g
             id="g73"
             style="stroke-width:2.83376;stroke-dasharray:none"
             transform="matrix(0.3073679,-0.00223292,0.00264707,0.25927647,15.148926,126.97647)">
            <path
               style="fill:#27230c;fill-opacity:1;fill-rule:evenodd;stroke:#110b03;stroke-width:2.83376;stroke-dasharray:none;stroke-opacity:1"
               d="M 47.88388,118.77571 38.372318,135.4867"
               id="path71" />
            <g
               id="g72"
               style="stroke-width:2.83376;stroke-dasharray:none">
              <path
                 style="fill:#27230c;fill-opacity:1;fill-rule:evenodd;stroke:#110b03;stroke-width:2.83376;stroke-dasharray:none;stroke-opacity:1"
                 d="m 38.372318,118.76955 9.511562,16.72331"
                 id="path72" />
            </g>
          </g>
          <g
             id="g75"
             style="stroke-width:2.83376;stroke-dasharray:none"
             transform="matrix(0.3073679,-0.00223292,0.00264707,0.25927647,11.444757,126.97647)">
            <path
               style="fill:#27230c;fill-opacity:1;fill-rule:evenodd;stroke:#110b03;stroke-width:2.83376;stroke-dasharray:none;stroke-opacity:1"
               d="M 47.88388,118.77571 38.372318,135.4867"
               id="path73" />
            <g
               id="g74"
               style="stroke-width:2.83376;stroke-dasharray:none">
              <path
                 style="fill:#27230c;fill-opacity:1;fill-rule:evenodd;stroke:#110b03;stroke-width:2.83376;stroke-dasharray:none;stroke-opacity:1"
                 d="m 38.372318,118.76955 9.511562,16.72331"
                 id="path74" />
            </g>
          </g>
        </g>
      </g>
    </g>
  </g>
</svg>
