<?xml version="1.0" encoding="UTF-8" standalone="no"?>
<!-- Created with Inkscape (http://www.inkscape.org/) -->

<svg
   width="55.784393mm"
   height="128.56639mm"
   viewBox="0 0 55.784392 128.56639"
   version="1.1"
   id="svg1"
   inkscape:version="1.3.2 (091e20ef0f, 2023-11-25, custom)"
   sodipodi:docname="side_table1.svg"
   xmlns:inkscape="http://www.inkscape.org/namespaces/inkscape"
   xmlns:sodipodi="http://sodipodi.sourceforge.net/DTD/sodipodi-0.dtd"
   xmlns="http://www.w3.org/2000/svg"
   xmlns:svg="http://www.w3.org/2000/svg">
  <sodipodi:namedview
     id="namedview1"
     pagecolor="#505050"
     bordercolor="#eeeeee"
     borderopacity="1"
     inkscape:showpageshadow="0"
     inkscape:pageopacity="0"
     inkscape:pagecheckerboard="0"
     inkscape:deskcolor="#505050"
     inkscape:document-units="mm"
     inkscape:zoom="1.8476291"
     inkscape:cx="-38.698244"
     inkscape:cy="294.70201"
     inkscape:window-width="2560"
     inkscape:window-height="1413"
     inkscape:window-x="0"
     inkscape:window-y="0"
     inkscape:window-maximized="0"
     inkscape:current-layer="layer1" />
  <defs
     id="defs1" />
  <g
     inkscape:label="Layer 1"
     inkscape:groupmode="layer"
     id="layer1"
     transform="translate(-83.500793,-114.86193)">
    <rect
       style="fill:#22150b;fill-opacity:1;fill-rule:evenodd;stroke:#120b07;stroke-width:2.46;stroke-dasharray:none;stroke-opacity:1"
       id="rect1"
       width="126.10639"
       height="50.137966"
       x="116.09193"
       y="-134.86876"
       rx="0"
       ry="0"
       transform="rotate(90)" />
    <g
       id="g85">
      <path
         style="fill:none;fill-opacity:1;fill-rule:evenodd;stroke:#160c00;stroke-width:2.46;stroke-dasharray:none;stroke-opacity:1"
         d="m 95.386521,237.42558 c 0,0 23.986259,-16.46818 12.601739,-42.38766 -11.384526,-25.91947 5.22685,-41.45684 15.82377,-58.85583 10.59691,-17.39899 -2.57763,-16.46818 -2.57763,-16.46818"
         id="path82" />
      <path
         style="fill:none;fill-opacity:1;fill-rule:evenodd;stroke:#160c00;stroke-width:2.46;stroke-dasharray:none;stroke-opacity:1"
         d="m 119.08638,234.77635 c 0,0 -8.01929,-27.20829 -0.0716,-50.26374 7.94768,-23.05545 -1.43202,-21.83823 13.81894,-54.27338"
         id="path83" />
      <path
         style="fill:none;fill-opacity:1;fill-rule:evenodd;stroke:#160c00;stroke-width:2.46;stroke-dasharray:none;stroke-opacity:1"
         d="m 91.233676,227.32987 c 0,0 13.102944,-3.65164 5.728062,-52.91297 -7.374879,-49.26133 20.907422,-34.36837 9.021692,-51.76736"
         id="path84" />
      <path
         style="fill:none;fill-opacity:1;fill-rule:evenodd;stroke:#160c00;stroke-width:2.46;stroke-dasharray:none;stroke-opacity:1"
         d="m 88.942452,141.98175 c 0,0 -0.93081,-12.60173 7.088476,-18.4014"
         id="path85" />
    </g>
    <g
       id="g82"
       transform="translate(-0.42960407,1.7900197)">
      <g
         id="g31"
         transform="matrix(0.08813842,0.79653617,-0.80686789,0.08928165,229.99362,20.168698)">
        <rect
           style="fill:#888888;fill-opacity:1;fill-rule:evenodd;stroke:#242424;stroke-width:0.892996;stroke-dasharray:none;stroke-opacity:1"
           id="rect18"
           width="38.968128"
           height="26.283381"
           x="110.23283"
           y="133.75938" />
        <rect
           style="fill:#3d3d3d;fill-opacity:1;fill-rule:evenodd;stroke:#5f5f5f;stroke-width:0.893;stroke-dasharray:none;stroke-opacity:1"
           id="rect19"
           width="11.670925"
           height="12.673338"
           x="112.96233"
           y="145.03946" />
        <path
           style="fill:#3d3d3d;fill-opacity:1;fill-rule:evenodd;stroke:#5f5f5f;stroke-width:0.893;stroke-dasharray:none;stroke-opacity:1"
           d="m 124.46199,143.40381 v -8.12602"
           id="path19" />
        <path
           style="fill:#3d3d3d;fill-opacity:1;fill-rule:evenodd;stroke:#5f5f5f;stroke-width:0.893;stroke-dasharray:none;stroke-opacity:1"
           d="m 121.72795,143.40381 v -8.12602"
           id="path20" />
        <path
           style="fill:#3d3d3d;fill-opacity:1;fill-rule:evenodd;stroke:#5f5f5f;stroke-width:0.893;stroke-dasharray:none;stroke-opacity:1"
           d="m 118.9939,143.40381 v -8.12602"
           id="path21" />
        <path
           style="fill:#3d3d3d;fill-opacity:1;fill-rule:evenodd;stroke:#5f5f5f;stroke-width:0.893;stroke-dasharray:none;stroke-opacity:1"
           d="m 116.25986,143.40381 v -8.12602"
           id="path22" />
        <path
           style="fill:#3d3d3d;fill-opacity:1;fill-rule:evenodd;stroke:#5f5f5f;stroke-width:0.893;stroke-dasharray:none;stroke-opacity:1"
           d="m 113.52581,143.40381 v -8.12602"
           id="path23" />
        <path
           style="fill:#3d3d3d;fill-opacity:1;fill-rule:evenodd;stroke:#5f5f5f;stroke-width:0.893;stroke-dasharray:none;stroke-opacity:1"
           d="M 146.33435,158.06102 V 135.27779"
           id="path24" />
        <path
           style="fill:#3d3d3d;fill-opacity:1;fill-rule:evenodd;stroke:#5f5f5f;stroke-width:0.893;stroke-dasharray:none;stroke-opacity:1"
           d="M 143.60031,158.06102 V 135.27779"
           id="path25" />
        <path
           style="fill:#3d3d3d;fill-opacity:1;fill-rule:evenodd;stroke:#5f5f5f;stroke-width:0.893;stroke-dasharray:none;stroke-opacity:1"
           d="M 140.86626,158.06102 V 135.27779"
           id="path26" />
        <path
           style="fill:#3d3d3d;fill-opacity:1;fill-rule:evenodd;stroke:#5f5f5f;stroke-width:0.893;stroke-dasharray:none;stroke-opacity:1"
           d="M 138.13221,158.06102 V 135.27779"
           id="path27" />
        <path
           style="fill:#3d3d3d;fill-opacity:1;fill-rule:evenodd;stroke:#5f5f5f;stroke-width:0.893;stroke-dasharray:none;stroke-opacity:1"
           d="M 135.39817,158.06102 V 135.27779"
           id="path28" />
        <path
           style="fill:#3d3d3d;fill-opacity:1;fill-rule:evenodd;stroke:#5f5f5f;stroke-width:0.893;stroke-dasharray:none;stroke-opacity:1"
           d="M 132.66413,158.06102 V 135.27779"
           id="path29" />
        <path
           style="fill:#3d3d3d;fill-opacity:1;fill-rule:evenodd;stroke:#5f5f5f;stroke-width:0.893;stroke-dasharray:none;stroke-opacity:1"
           d="M 129.93008,158.06102 V 135.27779"
           id="path30" />
        <path
           style="fill:#3d3d3d;fill-opacity:1;fill-rule:evenodd;stroke:#5f5f5f;stroke-width:0.893;stroke-dasharray:none;stroke-opacity:1"
           d="M 127.19604,158.06102 V 135.27779"
           id="path31" />
      </g>
      <g
         id="g18"
         transform="matrix(0.56335048,0.56997763,-0.57737069,0.57065759,132.38178,-24.737515)">
        <rect
           style="fill:#888888;fill-opacity:1;fill-rule:evenodd;stroke:#242424;stroke-width:0.892996;stroke-dasharray:none;stroke-opacity:1"
           id="rect2"
           width="38.968128"
           height="26.283381"
           x="110.23283"
           y="133.75938" />
        <rect
           style="fill:#3d3d3d;fill-opacity:1;fill-rule:evenodd;stroke:#5f5f5f;stroke-width:0.893;stroke-dasharray:none;stroke-opacity:1"
           id="rect3"
           width="11.670925"
           height="12.673338"
           x="112.96233"
           y="145.03946" />
        <path
           style="fill:#3d3d3d;fill-opacity:1;fill-rule:evenodd;stroke:#5f5f5f;stroke-width:0.893;stroke-dasharray:none;stroke-opacity:1"
           d="m 124.46199,143.40381 v -8.12602"
           id="path3" />
        <path
           style="fill:#3d3d3d;fill-opacity:1;fill-rule:evenodd;stroke:#5f5f5f;stroke-width:0.893;stroke-dasharray:none;stroke-opacity:1"
           d="m 121.72795,143.40381 v -8.12602"
           id="path4" />
        <path
           style="fill:#3d3d3d;fill-opacity:1;fill-rule:evenodd;stroke:#5f5f5f;stroke-width:0.893;stroke-dasharray:none;stroke-opacity:1"
           d="m 118.9939,143.40381 v -8.12602"
           id="path5" />
        <path
           style="fill:#3d3d3d;fill-opacity:1;fill-rule:evenodd;stroke:#5f5f5f;stroke-width:0.893;stroke-dasharray:none;stroke-opacity:1"
           d="m 116.25986,143.40381 v -8.12602"
           id="path6" />
        <path
           style="fill:#3d3d3d;fill-opacity:1;fill-rule:evenodd;stroke:#5f5f5f;stroke-width:0.893;stroke-dasharray:none;stroke-opacity:1"
           d="m 113.52581,143.40381 v -8.12602"
           id="path7" />
        <path
           style="fill:#3d3d3d;fill-opacity:1;fill-rule:evenodd;stroke:#5f5f5f;stroke-width:0.893;stroke-dasharray:none;stroke-opacity:1"
           d="M 146.33435,158.06102 V 135.27779"
           id="path8" />
        <path
           style="fill:#3d3d3d;fill-opacity:1;fill-rule:evenodd;stroke:#5f5f5f;stroke-width:0.893;stroke-dasharray:none;stroke-opacity:1"
           d="M 143.60031,158.06102 V 135.27779"
           id="path9" />
        <path
           style="fill:#3d3d3d;fill-opacity:1;fill-rule:evenodd;stroke:#5f5f5f;stroke-width:0.893;stroke-dasharray:none;stroke-opacity:1"
           d="M 140.86626,158.06102 V 135.27779"
           id="path10" />
        <path
           style="fill:#3d3d3d;fill-opacity:1;fill-rule:evenodd;stroke:#5f5f5f;stroke-width:0.893;stroke-dasharray:none;stroke-opacity:1"
           d="M 138.13221,158.06102 V 135.27779"
           id="path11" />
        <path
           style="fill:#3d3d3d;fill-opacity:1;fill-rule:evenodd;stroke:#5f5f5f;stroke-width:0.893;stroke-dasharray:none;stroke-opacity:1"
           d="M 135.39817,158.06102 V 135.27779"
           id="path12" />
        <path
           style="fill:#3d3d3d;fill-opacity:1;fill-rule:evenodd;stroke:#5f5f5f;stroke-width:0.893;stroke-dasharray:none;stroke-opacity:1"
           d="M 132.66413,158.06102 V 135.27779"
           id="path13" />
        <path
           style="fill:#3d3d3d;fill-opacity:1;fill-rule:evenodd;stroke:#5f5f5f;stroke-width:0.893;stroke-dasharray:none;stroke-opacity:1"
           d="M 129.93008,158.06102 V 135.27779"
           id="path16" />
        <path
           style="fill:#3d3d3d;fill-opacity:1;fill-rule:evenodd;stroke:#5f5f5f;stroke-width:0.893;stroke-dasharray:none;stroke-opacity:1"
           d="M 127.19604,158.06102 V 135.27779"
           id="path17" />
      </g>
      <g
         id="g77"
         transform="matrix(0.29512266,-0.69950307,0.69548749,0.29342848,37.093048,111.69851)"
         style="stroke-width:1.11779">
        <circle
           style="fill:#15220a;fill-opacity:1;stroke:#001100;stroke-width:2.87271;stroke-dasharray:none;stroke-opacity:1"
           id="path77"
           cx="-30.393389"
           cy="118.06628"
           r="25.069271" />
        <path
           sodipodi:type="spiral"
           style="fill:none;fill-rule:evenodd;stroke:#24150c;stroke-width:9.20349;stroke-dasharray:none;stroke-opacity:1"
           id="path68"
           sodipodi:cx="-663.5"
           sodipodi:cy="167.5"
           sodipodi:expansion="1.16"
           sodipodi:revolution="1.9671632"
           sodipodi:radius="110.97438"
           sodipodi:argument="-11.624054"
           sodipodi:t0="0"
           d="m -663.5,167.5 c 3.39031,4.66478 -5.25172,6.89324 -8.20135,5.96065 -10.19633,-3.22384 -10.064,-16.87808 -5.11816,-24.28717 9.63364,-14.43157 30.48472,-13.25992 42.65178,-2.99185 18.94584,15.98884 16.57732,45.27402 0.43115,62.27033 -22.51239,23.69773 -60.87279,20.00179 -82.81402,-2.39538 -28.63166,-29.22663 -23.51813,-77.09844 5.41313,-104.10173 36.12029,-33.713251 93.84106,-27.114466 126.01631,8.58029 32.9371,36.53996 32.89924,92.67348 3.87113,131.46489"
           transform="matrix(0.18137702,0,0,0.2129096,81.635096,82.966422)" />
        <path
           sodipodi:type="spiral"
           style="fill:none;fill-rule:evenodd;stroke:#1e1209;stroke-width:0.672733;stroke-dasharray:none;stroke-opacity:1"
           id="path61"
           sodipodi:cx="-198.625"
           sodipodi:cy="187.125"
           sodipodi:expansion="1.16"
           sodipodi:revolution="1.9671632"
           sodipodi:radius="8.6076393"
           sodipodi:argument="-24.263008"
           sodipodi:t0="0"
           d="m -198.625,187.125 c 0.28851,0.3418 -0.3675,0.5628 -0.60093,0.50725 -0.80692,-0.19204 -0.87349,-1.24908 -0.53255,-1.85007 0.66408,-1.17061 2.28371,-1.19726 3.28271,-0.47136 1.55559,1.13033 1.53708,3.40915 0.38362,4.8148 -1.60826,1.95989 -4.59661,1.88975 -6.41996,0.28052 -2.37935,-2.09992 -2.25304,-5.83204 -0.16681,-8.08375 2.60463,-2.81123 7.10702,-2.62543 9.79688,-0.0451 2.75355,2.64146 3.06637,6.98417 1.03895,10.14835"
           transform="matrix(2.2963116,1.7212982,-1.7564254,2.3431733,753.27824,25.21421)" />
        <g
           id="g76"
           transform="matrix(0.35501568,0.53078514,-0.49135269,0.46778383,33.748444,60.475284)"
           style="stroke-width:1.71085">
          <path
             style="fill:#5f482c;fill-opacity:1;stroke:#2e1f00;stroke-width:2.73734;stroke-dasharray:none;stroke-opacity:1"
             d="M -0.99618519,121.74945 C 17.104643,107.99844 -4.0196683,91.523085 -4.0196683,91.523085 c 0,0 -18.4045887,16.662445 -0.3037612,30.413455 l 1.666831,1.16931 z"
             id="path75"
             sodipodi:nodetypes="ccccc" />
          <path
             style="fill:none;fill-opacity:1;stroke:#4b320a;stroke-width:2.73734;stroke-dasharray:none;stroke-opacity:1"
             d="m -2.6782896,118.03322 c 0,0 4.2580941,-8.78742 -0.9715439,-21.071607"
             id="path76"
             sodipodi:nodetypes="cc" />
        </g>
        <g
           id="g74"
           transform="matrix(0.62778424,-0.11685866,0.23603737,0.63603108,-63.039691,30.239247)"
           style="stroke-width:1.71085">
          <path
             style="fill:#5f482c;fill-opacity:1;stroke:#2e1f00;stroke-width:2.73734;stroke-dasharray:none;stroke-opacity:1"
             d="M -0.99618519,121.74945 C 17.104643,107.99844 -4.0196683,91.523085 -4.0196683,91.523085 c 0,0 -18.4045887,16.662445 -0.3037612,30.413455 l 1.666831,1.16931 z"
             id="path73"
             sodipodi:nodetypes="ccccc" />
          <path
             style="fill:none;fill-opacity:1;stroke:#4b320a;stroke-width:2.73734;stroke-dasharray:none;stroke-opacity:1"
             d="m -2.6782896,118.03322 c 0,0 4.2580941,-8.78742 -0.9715439,-21.071607"
             id="path74"
             sodipodi:nodetypes="cc" />
        </g>
        <g
           id="g60"
           transform="translate(-26.027077,-8.8899666)"
           style="stroke-width:1.11779">
          <path
             style="fill:#5f482c;fill-opacity:1;stroke:#2e1f00;stroke-width:1.78846;stroke-dasharray:none;stroke-opacity:1"
             d="M -0.99618519,121.74945 C 17.104643,107.99844 5.8068594,89.668212 5.8068594,89.668212 c 0,0 -28.2311164,18.517318 -10.1302889,32.268328 l 1.666831,1.16931 z"
             id="path59"
             sodipodi:nodetypes="ccccc" />
          <path
             style="fill:none;fill-opacity:1;stroke:#4b320a;stroke-width:1.78846;stroke-dasharray:none;stroke-opacity:1"
             d="m -2.6782896,118.03322 c 0,0 -1.190625,-10.64948 6.1184895,-21.199742"
             id="path60" />
        </g>
        <g
           id="g63"
           transform="rotate(163.10745,-16.126349,121.03137)"
           style="stroke-width:1.11779">
          <path
             style="fill:#5f482c;fill-opacity:1;stroke:#2e1f00;stroke-width:1.78846;stroke-dasharray:none;stroke-opacity:1"
             d="M -0.99618519,121.74945 C 17.104643,107.99844 -4.0196683,91.523085 -4.0196683,91.523085 c 0,0 -18.4045887,16.662445 -0.3037612,30.413455 l 1.666831,1.16931 z"
             id="path62"
             sodipodi:nodetypes="ccccc" />
          <path
             style="fill:none;fill-opacity:1;stroke:#4b320a;stroke-width:1.78846;stroke-dasharray:none;stroke-opacity:1"
             d="m -2.6782896,118.03322 c 0,0 4.2580941,-8.78742 -0.9715439,-21.071607"
             id="path63"
             sodipodi:nodetypes="cc" />
        </g>
        <g
           id="g65"
           transform="rotate(117.10151,-10.940385,111.63411)"
           inkscape:transform-center-x="2.0917873"
           inkscape:transform-center-y="-16.423322"
           style="stroke-width:1.11779">
          <path
             style="fill:#5f482c;fill-opacity:1;stroke:#2e1f00;stroke-width:1.78846;stroke-dasharray:none;stroke-opacity:1"
             d="m -0.99618519,121.74945 c 18.10082819,-13.75101 0.791764,-26.404256 0.791764,-26.404256 0,0 -22.21983581,12.840336 -4.11900831,26.591346 l 1.666831,1.16931 z"
             id="path64"
             sodipodi:nodetypes="ccccc" />
          <path
             style="fill:none;fill-opacity:1;stroke:#4b320a;stroke-width:1.78846;stroke-dasharray:none;stroke-opacity:1"
             d="m -2.6782896,118.03322 c 0,0 -1.8054352,-9.96332 2.38703086,-18.472791"
             id="path65"
             sodipodi:nodetypes="cc" />
        </g>
        <g
           id="g67"
           transform="rotate(-110.76281,-18.423499,128.8972)"
           style="stroke-width:1.11779">
          <path
             style="fill:#5f482c;fill-opacity:1;stroke:#2e1f00;stroke-width:1.78846;stroke-dasharray:none;stroke-opacity:1"
             d="M -0.99618519,121.74945 C 17.104643,107.99844 10.099663,88.607589 10.099663,88.607589 c 0,0 -32.52392,19.577941 -14.4230925,33.328951 l 1.666831,1.16931 z"
             id="path66"
             sodipodi:nodetypes="ccccc" />
          <path
             style="fill:none;fill-opacity:1;stroke:#4b320a;stroke-width:1.78846;stroke-dasharray:none;stroke-opacity:1"
             d="m -2.6782896,118.03322 c 0,0 3.09167132,-10.59409 10.3344907,-22.430963"
             id="path67"
             sodipodi:nodetypes="cc" />
        </g>
        <g
           id="g70"
           transform="matrix(-0.49396842,-0.24874303,0.24312996,-0.50537253,-69.114214,188.16522)"
           style="stroke-width:2.00723">
          <path
             style="fill:#5f482c;fill-opacity:1;stroke:#2e1f00;stroke-width:3.21157;stroke-dasharray:none;stroke-opacity:1"
             d="M -0.99618519,121.74945 C 17.104643,107.99844 -4.0196683,91.523085 -4.0196683,91.523085 c 0,0 -18.4045887,16.662445 -0.3037612,30.413455 l 1.666831,1.16931 z"
             id="path69"
             sodipodi:nodetypes="ccccc" />
          <path
             style="fill:none;fill-opacity:1;stroke:#4b320a;stroke-width:3.21157;stroke-dasharray:none;stroke-opacity:1"
             d="m -2.6782896,118.03322 c 0,0 4.2580941,-8.78742 -0.9715439,-21.071607"
             id="path70"
             sodipodi:nodetypes="cc" />
        </g>
        <g
           id="g72"
           transform="matrix(0.4233655,-0.47804879,0.57712538,0.35661669,-108.76784,65.3188)"
           style="stroke-width:1.71085">
          <path
             style="fill:#5f482c;fill-opacity:1;stroke:#2e1f00;stroke-width:2.73734;stroke-dasharray:none;stroke-opacity:1"
             d="M -0.99618519,121.74945 C 17.104643,107.99844 -4.0196683,91.523085 -4.0196683,91.523085 c 0,0 -18.4045887,16.662445 -0.3037612,30.413455 l 1.666831,1.16931 z"
             id="path71"
             sodipodi:nodetypes="ccccc" />
          <path
             style="fill:none;fill-opacity:1;stroke:#4b320a;stroke-width:2.73734;stroke-dasharray:none;stroke-opacity:1"
             d="m -2.6782896,118.03322 c 0,0 4.2580941,-8.78742 -0.9715439,-21.071607"
             id="path72"
             sodipodi:nodetypes="cc" />
        </g>
      </g>
      <g
         id="g37"
         transform="rotate(-22.323846,70.302596,-56.841523)">
        <rect
           style="fill:#978f88;fill-opacity:1;fill-rule:evenodd;stroke:none;stroke-width:1.02556;stroke-dasharray:none;stroke-opacity:1"
           id="rect33"
           width="4.5429792"
           height="17.830799"
           x="-4.4901419"
           y="193.28929" />
        <rect
           style="fill:#452911;fill-opacity:1;fill-rule:evenodd;stroke:#120b07;stroke-width:1.02556;stroke-dasharray:none;stroke-opacity:1"
           id="rect31"
           width="2.8216519"
           height="17.915789"
           x="-7.3457861"
           y="193.20432" />
        <rect
           style="fill:#452911;fill-opacity:1;fill-rule:evenodd;stroke:#120b07;stroke-width:1.02556;stroke-dasharray:none;stroke-opacity:1"
           id="rect32"
           width="2.8216519"
           height="17.915789"
           x="-0.059637677"
           y="193.20432" />
        <path
           style="fill:#22150b;fill-opacity:1;fill-rule:evenodd;stroke:#120b07;stroke-width:1.02556;stroke-dasharray:none;stroke-opacity:1"
           d="M -4.6179981,193.20441 H 0.28589063"
           id="path32" />
        <path
           style="fill:#22150b;fill-opacity:1;fill-rule:evenodd;stroke:#120b07;stroke-width:1.02556;stroke-dasharray:none;stroke-opacity:1"
           d="M -4.8215996,211.11968 H 0.25843846"
           id="path33" />
      </g>
      <g
         id="g40"
         transform="rotate(-53.660315,80.667962,104.92469)">
        <rect
           style="fill:#978f88;fill-opacity:1;fill-rule:evenodd;stroke:none;stroke-width:1.02556;stroke-dasharray:none;stroke-opacity:1"
           id="rect37"
           width="4.5429792"
           height="17.830799"
           x="-4.4901419"
           y="193.28929" />
        <rect
           style="fill:#452911;fill-opacity:1;fill-rule:evenodd;stroke:#120b07;stroke-width:1.02556;stroke-dasharray:none;stroke-opacity:1"
           id="rect38"
           width="2.8216519"
           height="17.915789"
           x="-7.3457861"
           y="193.20432" />
        <rect
           style="fill:#452911;fill-opacity:1;fill-rule:evenodd;stroke:#120b07;stroke-width:1.02556;stroke-dasharray:none;stroke-opacity:1"
           id="rect39"
           width="2.8216519"
           height="17.915789"
           x="-0.059637677"
           y="193.20432" />
        <path
           style="fill:#22150b;fill-opacity:1;fill-rule:evenodd;stroke:#120b07;stroke-width:1.02556;stroke-dasharray:none;stroke-opacity:1"
           d="M -4.6179981,193.20441 H 0.28589063"
           id="path39" />
        <path
           style="fill:#22150b;fill-opacity:1;fill-rule:evenodd;stroke:#120b07;stroke-width:1.02556;stroke-dasharray:none;stroke-opacity:1"
           d="M -4.8215996,211.11968 H 0.25843846"
           id="path40" />
      </g>
      <g
         id="g47"
         transform="translate(55.591071,17.619028)">
        <path
           id="path41"
           style="fill:#707070;fill-rule:evenodd;stroke:#333333;stroke-width:0.508992"
           inkscape:transform-center-x="0.98736792"
           inkscape:transform-center-y="-1.3860571"
           d="m 64.770974,180.45985 -1.603513,0.75127 -2.208863,2.07594 -0.570051,-1.50667 0.136649,-1.01227 -2.719448,-0.16058 -1.38771,-1.10932 -0.01243,-1.35767 -1.583727,-1.49934 1.901047,-1.31948 0.507468,-0.66076 0.35629,-1.37039 0.952669,1.19016 3.208061,-1.23901 2.456497,-0.52209 -0.205692,1.11171 -0.290209,0.98369 0.972525,1.33973 2.3195,-0.14269 -1.918994,3.10508 z"
           sodipodi:nodetypes="ccccccccccccccccccccc" />
        <path
           style="fill:#707070;fill-opacity:1;fill-rule:evenodd;stroke:#333333;stroke-width:0.508992;stroke-dasharray:none;stroke-opacity:1"
           d="m 56.721975,175.3256 3.364809,0.78961 0.547342,4.5223"
           id="path42" />
        <path
           style="fill:#707070;fill-opacity:1;fill-rule:evenodd;stroke:#333333;stroke-width:0.508992;stroke-dasharray:none;stroke-opacity:1"
           d="m 63.227272,181.06821 -0.829986,-4.37874 1.395274,-1.76764"
           id="path43"
           sodipodi:nodetypes="ccc" />
        <path
           style="fill:#707070;fill-opacity:1;fill-rule:evenodd;stroke:#333333;stroke-width:0.508992;stroke-dasharray:none;stroke-opacity:1"
           d="m 56.488682,178.16999 1.534353,-0.86139"
           id="path44" />
        <path
           style="fill:#707070;fill-opacity:1;fill-rule:evenodd;stroke:#333333;stroke-width:0.508992;stroke-dasharray:none;stroke-opacity:1"
           d="m 60.373914,180.5747 c -0.161511,-0.12562 -1.668945,-1.60613 -1.668945,-1.60613"
           id="path45" />
        <path
           style="fill:#707070;fill-opacity:1;fill-rule:evenodd;stroke:#333333;stroke-width:0.508992;stroke-dasharray:none;stroke-opacity:1"
           d="m 65.030809,179.08522 -0.98701,-1.90224"
           id="path46" />
      </g>
      <g
         id="g52"
         transform="rotate(-36.688501,119.18778,109.49775)">
        <path
           id="path47"
           style="fill:#707070;fill-rule:evenodd;stroke:#333333;stroke-width:0.508992"
           inkscape:transform-center-x="0.98736792"
           inkscape:transform-center-y="-1.3860571"
           d="m 64.770974,180.45985 -1.603513,0.75127 -2.208863,2.07594 -0.570051,-1.50667 0.136649,-1.01227 -2.719448,-0.16058 -1.38771,-1.10932 -0.01243,-1.35767 -1.583727,-1.49934 1.901047,-1.31948 0.507468,-0.66076 0.35629,-1.37039 0.952669,1.19016 3.208061,-1.23901 2.456497,-0.52209 -0.205692,1.11171 -0.290209,0.98369 0.972525,1.33973 2.3195,-0.14269 -1.918994,3.10508 z"
           sodipodi:nodetypes="ccccccccccccccccccccc" />
        <path
           style="fill:#707070;fill-opacity:1;fill-rule:evenodd;stroke:#333333;stroke-width:0.508992;stroke-dasharray:none;stroke-opacity:1"
           d="m 56.721975,175.3256 3.364809,0.78961 0.547342,4.5223"
           id="path48" />
        <path
           style="fill:#707070;fill-opacity:1;fill-rule:evenodd;stroke:#333333;stroke-width:0.508992;stroke-dasharray:none;stroke-opacity:1"
           d="m 63.227272,181.06821 -0.829986,-4.37874 1.395274,-1.76764"
           id="path49"
           sodipodi:nodetypes="ccc" />
        <path
           style="fill:#707070;fill-opacity:1;fill-rule:evenodd;stroke:#333333;stroke-width:0.508992;stroke-dasharray:none;stroke-opacity:1"
           d="m 56.488682,178.16999 1.534353,-0.86139"
           id="path50" />
        <path
           style="fill:#707070;fill-opacity:1;fill-rule:evenodd;stroke:#333333;stroke-width:0.508992;stroke-dasharray:none;stroke-opacity:1"
           d="m 60.373914,180.5747 c -0.161511,-0.12562 -1.668945,-1.60613 -1.668945,-1.60613"
           id="path51" />
        <path
           style="fill:#707070;fill-opacity:1;fill-rule:evenodd;stroke:#333333;stroke-width:0.508992;stroke-dasharray:none;stroke-opacity:1"
           d="m 65.030809,179.08522 -0.98701,-1.90224"
           id="path52" />
      </g>
      <g
         id="g58"
         transform="rotate(15.824611,27.459017,367.26673)">
        <path
           id="path53"
           style="fill:#707070;fill-rule:evenodd;stroke:#333333;stroke-width:0.508992"
           inkscape:transform-center-x="0.98736792"
           inkscape:transform-center-y="-1.3860571"
           d="m 64.770974,180.45985 -1.603513,0.75127 -2.208863,2.07594 -0.570051,-1.50667 0.136649,-1.01227 -2.719448,-0.16058 -1.38771,-1.10932 -0.01243,-1.35767 -1.583727,-1.49934 1.901047,-1.31948 0.507468,-0.66076 0.35629,-1.37039 0.952669,1.19016 3.208061,-1.23901 2.456497,-0.52209 -0.205692,1.11171 -0.290209,0.98369 0.972525,1.33973 2.3195,-0.14269 -1.918994,3.10508 z"
           sodipodi:nodetypes="ccccccccccccccccccccc" />
        <path
           style="fill:#707070;fill-opacity:1;fill-rule:evenodd;stroke:#333333;stroke-width:0.508992;stroke-dasharray:none;stroke-opacity:1"
           d="m 56.721975,175.3256 3.364809,0.78961 0.547342,4.5223"
           id="path54" />
        <path
           style="fill:#707070;fill-opacity:1;fill-rule:evenodd;stroke:#333333;stroke-width:0.508992;stroke-dasharray:none;stroke-opacity:1"
           d="m 63.227272,181.06821 -0.829986,-4.37874 1.395274,-1.76764"
           id="path55"
           sodipodi:nodetypes="ccc" />
        <path
           style="fill:#707070;fill-opacity:1;fill-rule:evenodd;stroke:#333333;stroke-width:0.508992;stroke-dasharray:none;stroke-opacity:1"
           d="m 56.488682,178.16999 1.534353,-0.86139"
           id="path56" />
        <path
           style="fill:#707070;fill-opacity:1;fill-rule:evenodd;stroke:#333333;stroke-width:0.508992;stroke-dasharray:none;stroke-opacity:1"
           d="m 60.373914,180.5747 c -0.161511,-0.12562 -1.668945,-1.60613 -1.668945,-1.60613"
           id="path57" />
        <path
           style="fill:#707070;fill-opacity:1;fill-rule:evenodd;stroke:#333333;stroke-width:0.508992;stroke-dasharray:none;stroke-opacity:1"
           d="m 65.030809,179.08522 -0.98701,-1.90224"
           id="path58" />
      </g>
      <g
         id="g79"
         transform="matrix(0.25178544,0.31470053,-0.458916,0.36716928,197.58085,121.36593)">
        <rect
           style="fill:#202020;fill-opacity:1;fill-rule:evenodd;stroke:#131313;stroke-width:1.04152;stroke-dasharray:none;stroke-opacity:1"
           id="rect78"
           width="4.6339779"
           height="21.012585"
           x="67.514717"
           y="187.04121"
           ry="2.6960051"
           rx="2.3169889" />
        <rect
           style="fill:#21213e;fill-opacity:1;fill-rule:evenodd;stroke:#131313;stroke-width:0.75878;stroke-dasharray:none;stroke-opacity:1"
           id="rect79"
           width="4.9167175"
           height="10.511264"
           x="67.373352"
           y="203.30379"
           ry="1.3486404"
           rx="2.4583588" />
      </g>
      <g
         id="g81"
         transform="matrix(0.30303198,-0.26571404,0.38748083,0.44190019,27.215111,138.76378)">
        <rect
           style="fill:#202020;fill-opacity:1;fill-rule:evenodd;stroke:#131313;stroke-width:1.04152;stroke-dasharray:none;stroke-opacity:1"
           id="rect80"
           width="4.6339779"
           height="21.012585"
           x="51.695469"
           y="187.37389"
           ry="2.6960051"
           rx="2.3169889" />
        <rect
           style="fill:#21213e;fill-opacity:1;fill-rule:evenodd;stroke:#131313;stroke-width:0.75878;stroke-dasharray:none;stroke-opacity:1"
           id="rect81"
           width="4.9167175"
           height="10.511264"
           x="51.5541"
           y="203.63646"
           ry="1.3486404"
           rx="2.4583588" />
      </g>
    </g>
  </g>
</svg>
